<?xml version="1.0" encoding="UTF-8" standalone="no"?>
<!-- Created with Inkscape (http://www.inkscape.org/) -->

<svg
   version="1.1"
   id="svg1"
   width="862"
   height="517"
   viewBox="0 0 862 517"
   sodipodi:docname="up_shape 2.svg"
   inkscape:version="1.4.2 (f4327f4, 2025-05-13)"
   xmlns:inkscape="http://www.inkscape.org/namespaces/inkscape"
   xmlns:sodipodi="http://sodipodi.sourceforge.net/DTD/sodipodi-0.dtd"
   xmlns="http://www.w3.org/2000/svg"
   xmlns:svg="http://www.w3.org/2000/svg">
  <sodipodi:namedview
     id="namedview1"
     pagecolor="#505050"
     bordercolor="#eeeeee"
     borderopacity="1"
     inkscape:showpageshadow="0"
     inkscape:pageopacity="0"
     inkscape:pagecheckerboard="0"
     inkscape:deskcolor="#505050"
     inkscape:zoom="1.0502901"
     inkscape:cx="430.83333"
     inkscape:cy="258.5"
     inkscape:window-width="1366"
     inkscape:window-height="745"
     inkscape:window-x="-8"
     inkscape:window-y="-8"
     inkscape:window-maximized="1"
     inkscape:current-layer="g1" />
  <defs
     id="defs1" />
  <g
     id="g1"
     transform="translate(-92.355436,31.41989)">
    <g
       id="g2202"
       transform="matrix(0.76798186,0,0,0.81720638,196.11911,49.159772)"
       style="fill:#ffce2a;fill-opacity:0.765125">
      <path
         style="fill:#ffce2a;fill-opacity:0.765125"
         d="m 448.72836,290.20048 c -30.24613,-4.74072 -57.44156,-20.05823 -83.44228,-35.41513 -14.57242,-9.37788 -28.30319,-20.74688 -37.77225,-35.44029 1.55946,-10.10675 -14.67049,-11.85099 -13.12633,-19.59235 4.40931,-10.78841 14.99697,-17.03261 24.01739,-23.57471 7.00579,-4.27887 20.79417,-3.58602 21.04595,-14.13997 -0.0924,-4.88464 -14.53856,-18.07083 -2.70701,-15.2995 13.08338,0.55022 20.44739,14.00897 30.01205,18.34596 26.79833,1.08992 51.42055,-11.02359 76.70151,-17.83656 20.6482,-5.10049 45.9158,-2.64494 60.05369,14.97051 15.33339,18.63375 16.79249,44.99086 11.54228,67.66053 -7.41787,25.79893 -28.96175,46.20954 -53.58525,55.86369 -10.40291,3.8672 -21.67052,5.60463 -32.73975,4.45782 z"
         id="path2243" />
      <path
         style="fill:#ffce2a;fill-opacity:0.765125"
         d="m 445.65863,289.85045 c -29.50849,-5.84973 -56.22601,-20.68982 -81.75676,-36.00263 -14.42103,-9.72178 -29.42533,-20.92878 -36.89977,-37.04967 -4.12967,-7.51015 -12.67914,-15.3701 -5.51908,-24.1203 5.4508,-11.36709 17.05981,-18.94301 29.47481,-20.27094 13.54351,-4.45265 4.88444,-18.5876 1.32955,-25.68406 7.77229,-0.76788 16.27085,3.73106 22.34505,8.70854 5.66645,6.00968 13.33629,14.04237 22.30318,9.58614 22.47728,-1.72752 43.1405,-11.31832 64.61996,-17.1975 20.15594,-5.49723 44.64626,-4.1342 59.81791,11.84425 14.88631,16.51443 18.87444,40.63238 15.32051,62.05417 -4.63075,27.9841 -25.81063,51.35812 -51.37948,62.46811 -12.4246,5.2785 -26.24013,7.47429 -39.65588,5.66389 z"
         id="path2242" />
      <path
         style="fill:#ffce2a;fill-opacity:0.765125"
         d="m 446.22836,289.85914 c -27.7139,-4.96595 -52.62375,-19.05362 -76.92073,-32.5906 -15.5822,-9.48673 -30.401,-21.01263 -40.76703,-36.22771 -1.27306,-8.95155 -14.0269,-15.42694 -8.28255,-25.25752 4.99874,-12.65557 17.04837,-22.04867 30.62447,-23.43339 13.54705,-4.41623 4.9951,-18.54143 1.40486,-25.62707 9.77947,-0.3397 20.77695,5.09245 26.74218,13.26001 8.13551,10.51744 22.67625,3.48598 33.55847,2.55362 26.68896,-5.34038 51.89363,-20.97169 79.92843,-17.01525 19.78623,2.04075 36.16449,17.4896 41.51519,36.27466 7.62399,25.03727 3.97816,54.15681 -12.91549,74.7244 -17.52514,22.38352 -46.12439,36.99201 -74.8878,33.33885 z"
         id="path2241" />
      <path
         style="fill:#ffce2a;fill-opacity:0.765125"
         d="m 445.96029,289.83619 c -29.14517,-5.70759 -55.56614,-20.25966 -80.86405,-35.22957 -16.34507,-10.55611 -32.52682,-23.55743 -40.52835,-41.73799 -8.28787,-7.94975 -6.11205,-19.07204 1.13715,-26.64046 7.22259,-9.09578 18.73186,-12.86271 29.4179,-15.84942 11.10962,-6.15934 -4.95146,-20.83709 -2.08202,-23.95857 13.0631,-0.072 22.34671,9.47918 30.72748,17.88617 9.38557,3.6549 19.43285,-0.65676 28.96349,-1.69725 26.79273,-5.80767 52.43467,-20.79865 80.6623,-16.93564 21.21955,2.50784 37.75269,20.69867 41.98269,41.08101 6.10591,24.75385 1.05647,52.70771 -16.13329,72.04033 -17.59626,21.12782 -45.50865,34.67302 -73.2833,31.04139 z"
         id="path2240" />
      <path
         style="fill:#ffce2a;fill-opacity:0.765125"
         d="m 445.96029,289.83619 c -29.59341,-5.83705 -56.41485,-20.65407 -82.02142,-36.00657 -14.50514,-9.37284 -28.22108,-20.82242 -37.11285,-35.85104 -1.27007,-8.33463 -13.20436,-14.64175 -5.7548,-23.63597 4.82228,-11.41331 15.70394,-19.78799 27.97342,-21.51569 12.08087,-2.39443 12.74026,-15.28096 4.13743,-22.11294 -3.95241,-9.72618 11.38931,-0.87642 15.53129,0.55952 6.24442,3.30149 11.74356,8.36489 14.70725,14.8553 22.98321,-0.64302 45.50231,-6.42322 66.70922,-15.06925 20.66955,-6.84437 45.44641,-9.92403 64.4646,3.00303 19.00573,13.53603 24.65054,38.81142 22.8,60.90853 -2.5601,44.01055 -48.06798,80.39713 -91.43414,74.86508 z"
         id="path2239" />
      <path
         style="fill:#ffce2a;fill-opacity:0.765125"
         d="m 446.22836,289.841 c -32.72418,-6.77554 -62.59928,-23.11991 -90.1594,-41.49892 -17.08519,-11.96623 -34.40212,-29.35709 -34.35087,-51.62991 1.17336,-13.52328 14.50053,-20.50836 26.13913,-23.88434 10.13807,-1.35215 15.45245,-12.59238 6.91413,-19.87294 -8.50637,-11.16555 10.04282,-4.91645 14.09214,-1.66394 9.30095,6.75693 16.72343,18.50204 30.06219,13.97001 16.21916,-2.05577 31.76011,-7.15251 47.07628,-12.69144 19.924,-7.00183 42.94799,-11.73516 62.79063,-1.90907 17.44652,8.8313 26.8737,27.95816 28.43973,46.83567 2.87332,22.72271 -3.9193,46.72506 -19.87934,63.4393 -17.5875,19.73506 -44.41246,32.37366 -71.12462,28.90558 z"
         id="path2238" />
      <path
         style="fill:#ffce2a;fill-opacity:0.765125"
         d="m 446.28893,289.79985 c -31.10313,-6.20274 -59.41223,-21.68538 -85.98124,-38.43984 -17.53638,-12.0303 -35.98784,-28.20104 -38.39773,-50.6524 -1.78241,-13.56259 10.46595,-22.70762 21.85332,-26.67192 7.58518,-2.7356 20.45058,-4.05163 14.35976,-15.15063 -0.66264,-5.34181 -12.34721,-15.2098 -0.84295,-11.80374 14.0769,0.27036 19.67675,15.81499 31.97962,18.69769 11.72083,-0.11234 23.4232,-2.69182 34.73722,-5.69855 23.50136,-7.2077 47.54339,-19.46888 72.76438,-13.50863 19.02902,3.451 33.59988,19.52529 38.04325,37.92089 5.88015,22.81165 3.20256,48.55254 -10.83004,67.97987 -16.9644,24.70243 -47.40429,41.06196 -77.68559,37.32726 z"
         id="path2237" />
      <path
         style="fill:#ffce2a;fill-opacity:0.765125"
         d="m 446.28893,289.79985 c -31.68371,-6.25131 -60.33065,-22.34455 -87.31352,-39.4609 -17.87205,-11.98766 -35.48892,-29.05279 -37.22482,-51.70374 -0.11594,-13.3145 12.56133,-22.00055 24.09782,-25.35532 11.42425,-0.0137 17.43295,-11.13759 10.17292,-20.03085 -1.95816,-2.65767 -8.6077,-8.567 -0.69028,-6.45799 14.24519,-0.14844 21.01802,13.99756 32.50662,18.75665 10.47529,1.08859 20.9262,-1.97908 31.12163,-4.13389 24.5611,-6.61167 48.78496,-19.84032 74.98462,-15.56821 18.92331,2.72707 35.07929,17.40315 39.92852,35.85576 10.11471,29.89822 0.81369,65.17098 -23.06927,85.91499 -17.19896,15.78851 -41.02808,25.26192 -64.51424,22.1835 z"
         id="path2236" />
      <path
         style="fill:#ffce2a;fill-opacity:0.765125"
         d="m 446.28893,289.79985 c -31.695,-6.28815 -60.36735,-22.38717 -87.37198,-39.50618 -17.53568,-12.00679 -35.72022,-28.83688 -36.91875,-51.47246 -0.57764,-12.58159 10.712,-21.72589 21.96739,-24.53036 9.27184,-1.24682 21.0602,-9.13218 12.80815,-19.05467 -2.38525,-4.32269 -10.69708,-11.80996 -0.91486,-8.48464 10.14983,2.08587 19.92782,7.4749 25.95196,16.07287 10.89368,6.97205 23.41165,-0.14446 34.95006,-0.86966 25.49937,-6.23851 50.31799,-20.69734 77.38577,-16.09172 20.36187,3.02913 37.08654,19.94272 40.90708,40.02306 8.32503,29.61129 -1.99386,63.51568 -25.90572,83.02475 -16.96488,14.98483 -40.09562,23.93489 -62.8591,20.88901 z"
         id="path2235" />
      <path
         style="fill:#ffce2a;fill-opacity:0.765125"
         d="m 447.50151,289.80933 c -28.17685,-4.65194 -53.54467,-18.78351 -78.12159,-32.60152 -18.13251,-11.31001 -37.03415,-25.12439 -44.99275,-45.75375 -3.88352,-10.12578 -3.62944,-23.86363 6.49057,-30.30063 7.61712,-8.34438 23.56117,-6.72002 28.70297,-15.52758 1.47035,-7.45951 -7.97865,-15.93883 -8.42692,-19.61192 11.62594,1.31871 23.92258,6.42038 29.94363,17.01494 9.71767,6.49261 21.56911,0.12164 32.12596,-0.19754 26.24248,-5.65515 51.15483,-21.0572 78.84197,-17.23077 18.98962,2.07707 35.79935,16.02344 41.1691,34.39346 11.04119,30.05772 1.97301,66.19101 -22.21549,87.2648 -16.86747,15.719 -40.29313,25.28126 -63.51745,22.55051 z"
         id="path2234" />
      <path
         style="fill:#ffce2a;fill-opacity:0.765125"
         d="m 447.03096,289.70721 c -29.2515,-5.11424 -55.61937,-19.88701 -80.93902,-34.69849 -17.402,-11.22245 -35.68561,-25.07066 -42.25884,-45.57986 -3.02046,-9.43932 -2.56801,-21.74536 6.52627,-27.75354 7.72252,-8.6588 23.7707,-7.09545 29.32827,-15.93147 1.64696,-7.36082 -8.58561,-15.81171 -7.91325,-19.62978 12.50173,1.77621 25.38416,7.8871 31.63267,19.36931 27.31149,2.03823 52.56859,-10.28658 78.17114,-17.62238 20.65329,-5.54377 45.80795,-3.73885 60.81879,13.20777 15.63191,18.02714 17.94684,44.34014 12.77921,66.83458 -9.96667,37.65168 -49.01045,66.23641 -88.14524,61.80386 z"
         id="path2233" />
      <path
         style="fill:#ffce2a;fill-opacity:0.765125"
         d="m 447.03096,289.70721 c -28.57462,-4.96667 -54.39968,-19.2229 -79.20846,-33.57556 -17.09846,-10.87476 -34.82584,-23.93978 -42.84848,-43.21878 -4.10157,-10.09914 -4.81987,-24.00235 5.1194,-31.01693 8.25939,-6.70745 18.7816,-9.33545 28.63494,-12.75617 4.64508,-8.3592 -6.87647,-19.00233 -7.40611,-22.9923 12.83776,1.64 26.17448,7.99312 32.24145,19.98755 23.41304,-0.19499 46.25117,-6.56448 67.76175,-15.4039 21.00728,-6.90625 46.85955,-9.57945 65.36401,4.93411 18.45876,15.07354 23.00577,41.08267 20.28803,63.6317 -5.68819,41.57517 -48.08842,75.30752 -89.94653,70.41028 z"
         id="path2232" />
      <path
         style="fill:#ffce2a;fill-opacity:0.765125"
         d="m 436.72836,287.90178 c -35.18643,-11.43659 -69.12941,-28.47121 -96.92135,-53.14778 -11.32528,-11.18003 -20.51684,-27.60012 -16.66512,-43.88715 5.44427,-11.46775 18.58607,-16.29418 29.9711,-19.46345 12.33954,-2.40821 4.10566,-17.97632 -1.48904,-23.61866 6.19782,-3.21478 16.98047,3.49194 23.13993,7.48279 5.58406,11.17024 17.34571,12.29464 28.33196,9.46135 20.55825,-2.45504 39.27456,-11.84353 59.11512,-16.99423 20.05997,-5.05786 44.53524,-3.7925 59.26166,12.5249 16.78101,18.82583 19.55509,46.92235 12.94125,70.51551 -11.46676,36.87091 -50.93622,64.40734 -89.77418,58.43672 -2.65199,-0.3396 -5.29047,-0.78225 -7.91133,-1.31 z"
         id="path2231" />
      <path
         style="fill:#ffce2a;fill-opacity:0.765125"
         d="m 438.42086,288.27439 c -36.61669,-11.42541 -71.96618,-29.08375 -100.29735,-55.25337 -10.74977,-11.23003 -19.35853,-27.80655 -14.39461,-43.51315 6.54019,-11.31539 19.96607,-15.92923 31.93169,-18.42686 8.92582,-6.99332 0.12063,-18.54446 -4.37138,-24.75893 12.07063,1.25429 24.51518,7.00609 30.94331,17.74911 12.95482,4.64414 26.45122,-0.88925 39.29097,-3.16361 23.90372,-6.97911 47.93124,-19.80513 73.55708,-14.80868 19.0941,3.22495 34.66387,18.79857 39.17891,37.44628 8.49133,27.61946 1.37775,59.80157 -19.63299,80.03404 -17.86423,18.71972 -44.47306,29.85186 -70.43378,25.53858 -1.93075,-0.23171 -3.85527,-0.51465 -5.77185,-0.84341 z"
         id="path2230" />
      <path
         style="fill:#ffce2a;fill-opacity:0.765125"
         d="m 437.16578,287.85061 c -35.3036,-10.92924 -68.98709,-28.35036 -96.90601,-52.70048 -11.30794,-11.00574 -20.43186,-26.88719 -17.56591,-43.11739 4.35106,-10.96496 16.38368,-16.13987 26.89711,-19.15472 13.55452,-0.66089 11.81479,-18.57561 2.56229,-24.09743 1.64478,-4.99094 13.86842,0.7135 18.14332,3.92333 5.89072,4.23908 10.72192,9.98504 17.35208,13.15623 26.00757,0.80748 49.63611,-11.46255 74.243,-17.85145 19.06563,-5.1232 41.78309,-4.64308 56.88189,9.75843 15.39149,13.61922 19.52622,35.45522 18.71325,55.12101 -0.95417,22.53707 -13.04101,43.41429 -30.2916,57.53355 -19.13457,16.19367 -45.45696,23.58057 -70.02942,17.42892 z"
         id="path2229" />
      <path
         style="fill:#ffce2a;fill-opacity:0.765125"
         d="m 438.75684,288.26247 c -36.98935,-11.39272 -72.69324,-29.26523 -101.14805,-55.81918 -10.14421,-10.29874 -16.86293,-24.91706 -14.94446,-39.52683 3.83136,-12.83732 18.75971,-14.28295 29.81316,-16.86159 32.96098,-7.30487 66.79309,-12.04174 98.19013,-25.02091 21.00233,-7.12368 46.7497,-9.89622 65.43353,4.42172 18.68087,14.9344 23.47766,40.95778 20.84098,63.60074 -3.67978,29.53842 -26.34252,54.18499 -53.05806,65.62787 -14.30934,5.47606 -30.12487,6.11795 -45.12723,3.57818 z m -79.52848,-126.9376 c 3.20936,-5.51359 -14.72039,-16.40147 -2.24109,-13.69628 6.23406,2.1489 19.11239,4.15478 18.04541,12.55919 -5.1559,0.47012 -11.1401,5.60367 -15.80432,1.13709 z"
         id="path2228" />
      <path
         style="fill:#ffce2a;fill-opacity:0.765125"
         d="M 438.75684,288.19947 C 402.42992,277.17799 367.59672,259.51096 339.21027,234.10059 327.91451,222.825 318.98362,206.2248 323.64986,189.94773 c 6.60528,-11.76128 21.59926,-11.69188 33.13008,-14.76609 31.67155,-6.46469 63.76519,-12.08541 93.93813,-24.08535 20.44808,-6.9707 44.97896,-9.95231 63.66977,3.15655 18.13061,12.36792 23.65515,35.96503 23.18249,56.738 -0.55701,21.3904 -10.79158,41.758 -26.58632,55.99788 -18.04667,17.27726 -44.1054,26.49995 -68.93386,21.7319 -1.10025,-0.15755 -2.19813,-0.33158 -3.29331,-0.52115 z M 351.83136,148.02302 c 2.08875,-3.28158 2.62806,3.2701 0,0 z"
         id="path2227" />
      <path
         style="fill:#ffce2a;fill-opacity:0.765125"
         d="m 443.22836,289.16654 c -35.21424,-9.28578 -68.31403,-26.30955 -96.97787,-48.68351 -12.12649,-10.33236 -23.80556,-24.4561 -23.81667,-41.12905 3.33066,-13.93223 17.83055,-21.21001 30.94322,-23.20098 33.16051,-7.45521 67.06312,-12.78727 98.73092,-25.60543 20.31374,-6.22411 44.56413,-9.03371 62.88383,4.05754 19.48128,14.49245 24.69712,41.01195 21.85877,63.91448 -4.02513,33.09255 -31.29622,60.73281 -62.972,69.08544 -10.00939,2.40794 -20.44562,2.69346 -30.6502,1.56151 z"
         id="path2226" />
      <path
         style="fill:#ffce2a;fill-opacity:0.765125"
         d="m 444.72836,289.2803 c -33.68343,-7.819 -64.85721,-24.32494 -92.82966,-44.33129 -13.98878,-10.64523 -28.1373,-25.12023 -29.04597,-43.68521 0.61229,-13.49626 13.98044,-20.80039 25.6342,-23.72011 25.53692,-6.69499 51.9234,-9.89061 77.15716,-17.87357 18.52233,-5.45558 36.43198,-14.58303 56.18285,-14.4146 17.92779,-0.79601 36.65485,7.28372 45.81078,23.22466 10.7022,17.99492 12.22634,40.54968 7.23462,60.58176 -8.37017,28.85308 -33.57762,52.02772 -62.72833,58.76932 -9.01166,1.80373 -18.26724,1.96733 -27.41565,1.44904 z"
         id="path2225" />
      <path
         style="fill:#ffce2a;fill-opacity:0.765125"
         d="m 442.34172,288.79825 c -33.4884,-8.74682 -64.87932,-24.8923 -92.56048,-45.52674 -12.38012,-10.01826 -24.88945,-22.91161 -26.649,-39.49482 -1.05436,-13.14953 10.48759,-21.90105 21.95354,-24.99582 21.3764,-7.35811 44.2274,-8.69534 65.90199,-15.00835 17.84629,-4.27936 34.79698,-11.54349 52.47689,-16.29579 20.61803,-4.98633 45.73383,-2.51596 59.89616,14.99003 14.20954,17.2926 15.96696,41.46398 12.45305,62.75638 -8.82697,39.21789 -49.32914,68.76041 -89.48437,64.01979 -1.33214,-0.12071 -2.66174,-0.26926 -3.98778,-0.44468 z m -25.11336,-40.4419 c -1.16757,-2.27881 -1.0685,2.26296 0,0 z m -5,-5.03138 c -2.61413,-6.57458 -3.72664,4.6812 0,-2e-5 z"
         id="path2224" />
      <path
         style="fill:#ffce2a;fill-opacity:0.765125"
         d="m 428.29471,284.76241 c -35.88842,-13.69495 -73.08993,-30.26738 -97.56575,-61.09813 -7.15542,-9.9528 -11.60129,-25.61481 -1.86735,-35.43889 12.49916,-12.50874 31.29444,-12.89116 47.49251,-16.88904 25.99903,-4.95483 51.84427,-11.21413 76.50513,-20.93615 20.06078,-6.21023 44.05027,-8.71336 62.11492,4.17495 19.20011,14.28853 24.36855,40.35082 21.85414,62.94935 -2.85006,29.38371 -24.94636,54.45996 -51.5199,65.71258 -13.42405,4.24817 -27.8483,0.99315 -41.41648,4.36163 -5.3166,-0.0423 -10.54604,-1.25966 -15.59722,-2.8363 z m 9.85032,-24.16855 c -10.38878,-5.07715 -17.74301,-15.10005 -28.95626,-18.68309 7.32104,8.33425 17.5609,13.93362 27.47188,18.48709 z"
         id="path2223" />
      <path
         style="fill:#ffce2a;fill-opacity:0.765125"
         d="m 428.56169,281.18969 c 2.26547,-1.73142 0.66361,2.17953 0,0 z m -12.33333,-1.30748 c -30.95968,-12.55686 -62.24382,-28.18712 -84.08787,-54.22281 -7.83378,-10.01979 -13.21064,-25.8503 -4.06915,-36.74743 10.97714,-11.67181 28.06562,-12.86771 42.79145,-16.33881 28.4731,-5.53917 56.82996,-12.24227 83.92598,-22.72742 19.92595,-5.94406 43.8243,-7.75024 61.29936,5.55652 18.58981,14.56087 23.05877,40.24821 20.59773,62.51618 -1.33543,20.89469 -14.36935,39.15279 -29.9962,52.18157 -11.27434,6.79338 -24.96713,3.59566 -37.35946,5.85137 -17.01363,1.9364 -34.11099,3.12608 -51.18612,4.05743 z m 35,-13.52586 c -1.16757,-2.27881 -1.0685,2.26296 0,0 z m -11,-5.51855 c -18.61752,-8.73818 -31.93028,-25.07539 -48.83509,-36.34662 15.18609,17.94152 34.1783,33.90209 56.85608,41.04649 -2.35036,-1.96452 -5.35395,-3.18625 -8.02099,-4.69987 z m -45,-32.48145 c 1.16757,-2.27881 1.0685,2.26296 0,0 z m 38.76166,51.79274 c 5.94161,-2.40298 2.32943,1.42054 0,0 z m 25.98834,-1.95502 c 2.47312,-1.40786 2.63896,2.3548 0,0 z m 4.33333,0.30592 c 5.80618,-3.20966 6.74404,1.97845 0,0 z m 9.16667,-1.33296 c 4.6895,-1.32603 3.91855,1.63731 0,0 z"
         id="path2222" />
      <path
         style="fill:#ffce2a;fill-opacity:0.765125"
         d="m 392.45912,269.43284 c -25.17346,-13.04738 -51.81803,-27.85001 -66.16437,-53.41298 -5.64207,-10.89744 -3.41727,-27.01982 8.66331,-32.53625 16.07625,-9.16931 35.0663,-9.8618 52.66123,-14.34819 23.29661,-4.49583 46.01652,-11.49728 68.2747,-19.6062 19.9318,-5.75173 43.81618,-7.25207 60.93936,6.48016 16.8073,13.47957 21.64117,36.52884 19.95401,57.05453 0.29104,19.29379 -9.55724,37.6804 -23.30513,50.69986 -10.26995,6.55679 -23.07133,3.92253 -34.55551,5.95401 -24.49218,2.25793 -49.00782,4.25524 -73.53484,6.09399 -4.31092,-2.12631 -8.62184,-4.25262 -12.93276,-6.37893 z m 66.76924,-1.07649 c -1.16757,-2.27881 -1.0685,2.26296 0,0 z m -7.5,-2.42829 c -12.11229,-4.63143 -23.64813,-11.20886 -32.93758,-20.34469 -2.20761,-11.10508 20.4994,0.51753 16.53122,-7.70092 -6.21284,-0.46889 -18.09525,-8.64881 -19.44986,-6.84025 -6.19023,-6.11213 -18.57299,-5.4372 -27.1029,-10.62504 -4.12854,-1.86887 -14.38318,-5.91082 -5.99274,-0.56045 17.85273,14.23055 33.23299,32.08241 54.38102,41.70102 3.73715,2.46052 17.0174,6.51717 16.13074,4.96709 -0.51994,-0.19888 -1.04002,-0.39797 -1.5599,-0.59676 z m -15.5,-26.57171 c 1.16757,-2.27881 1.0685,2.26296 0,0 z m -28,-8 c 1.16757,-2.27881 1.0685,2.26296 0,0 z m 2,-1 c 1.16757,-2.27881 1.0685,2.26296 0,0 z m -11.55887,-2.95026 c -2.52963,-3.77419 3.2617,1.23041 1.50405,1.03423 z m 43.22554,12.7836 c -2.26547,-1.73142 -0.66361,2.17953 0,0 z m 2.79062,-0.26424 c 0.22833,-5.7066 -3.2677,2.84203 0,0 z m 2.20938,-0.73576 c -2.02065,0.49012 1.40822,1.84522 0,0 z m 3.33333,1.16666 c -1.16757,-2.27881 -1.0685,2.26296 0,0 z m -27,-7 c -1.16757,-2.27881 -1.0685,2.26296 0,0 z m -48.33333,-19.16666 c -2.26547,-1.73142 -0.66361,2.17953 0,0 z"
         id="path2221" />
      <path
         style="fill:#ffce2a;fill-opacity:0.765125"
         d="m 383.22836,264.78227 c -21.81967,-12.76189 -45.51237,-26.37561 -57.29026,-49.82017 -4.83787,-10.77827 -2.67567,-26.24346 9.06512,-31.55331 17.6375,-9.60371 38.2037,-10.3516 57.34083,-15.22218 20.94999,-4.29407 41.52145,-10.37193 61.4508,-18.10258 20.92162,-6.33427 46.50511,-8.27444 64.19823,6.87491 17.89119,15.70434 21.38686,41.69753 18.34009,64.12732 -2.19968,12.40814 -6.53965,25.30574 -15.61873,34.34825 -9.8335,6.36418 -21.31982,10.00419 -32.463,13.29652 -15.03934,2.95986 -31.07181,0.45309 -44.52297,-6.88317 -2.51814,-6.14552 -17.22385,-14.23063 -10.8422,-19.82784 10.49134,-2.24737 21.20549,0.61435 31.75601,-0.86377 4.42334,1.99417 21.42008,-2.78783 10.24546,-6.11057 -11.97462,-4.99395 -23.69578,-11.2247 -36.81978,-12.58425 -9.60976,-1.52159 -16.61838,-8.8169 -26.00038,-9.747 -11.25387,-2.77648 -22.47654,-2.91478 -33.70647,-0.72541 -5.07313,0.35254 -17.45812,-1.20553 -5.91969,2.28302 21.00897,10.01427 34.23663,30.65528 54.57278,41.78134 4.02278,3.37062 15.62477,7.43723 15.41864,9.34192 -15.69975,1.95 -31.57362,2.62274 -47.30338,3.91171 -4.27744,-0.43648 -8.34442,-2.15531 -11.9011,-4.52474 z m 50,-18.42592 c -1.16757,-2.27881 -1.0685,2.26296 0,0 z m 44,-13 c -1.16757,-2.27881 -1.0685,2.26296 0,0 z m -12,-6 c -1.16757,-2.27881 -1.0685,2.26296 0,0 z m -34.33333,-10.16666 c -2.26547,-1.73142 -0.66361,2.17953 0,0 z m 3.33333,-0.83334 c -1.16757,-2.27881 -1.0685,2.26296 0,0 z m -13,-4 c -1.16757,-2.27881 -1.0685,2.26296 0,0 z m -59.33333,-2.16666 c -2.26547,-1.73142 -0.66361,2.17953 0,0 z m 22,-1 c -2.26547,-1.73142 -0.66361,2.17953 0,0 z m 24.33333,0.16666 c -1.16757,-2.27881 -1.0685,2.26296 0,0 z m -10.25,-3.18932 c -4.6895,-1.32603 -3.91855,1.63731 0,0 z m 38.25,49.18932 c 1.16757,-2.27881 1.0685,2.26296 0,0 z m 28.33333,-22.16666 c 2.26547,-1.73142 0.66361,2.17953 0,0 z m -19.58333,-7.99562 c 2.47312,-1.40786 2.63896,2.3548 0,0 z m -6.75,-0.83772 c 1.16757,-2.27881 1.0685,2.26296 0,0 z"
         id="path2220" />
      <path
         style="fill:#ffce2a;fill-opacity:0.765125"
         d="m 463.45581,268.87568 c -8.0834,-5.70492 -21.125,-15.35358 -18.21501,-25.93692 10.45647,-3.0634 22.36052,0.92021 33.17977,-3.22588 5.50893,-1.82863 17.33339,-3.31055 18.24863,-7.46798 -6.25088,-6.78602 -15.70552,-9.57005 -23.65015,-12.55071 4.98162,-3.90985 -9.53861,-1.32461 -11.94785,-5.78073 -5.83028,-2.61718 -14.06412,-1.33337 -17.18589,-8.65242 -10.93245,-4.8168 -23.37175,-4.58967 -34.31983,-9.50881 -10.75088,-4.48773 -22.27477,-2.59845 -33.39376,-1.00664 -15.71224,2.18953 -31.20605,5.64338 -46.76037,8.71111 -12.0451,-4.37636 0.0964,-19.75872 8.43552,-21.55036 24.12399,-10.17704 50.73453,-11.25945 75.69633,-18.56346 23.60475,-5.65453 45.70924,-18.55124 70.54154,-17.99004 17.6639,-0.39708 35.71624,8.33878 44.19097,24.21341 10.44212,18.59741 11.03374,41.51935 5.69801,61.78037 -2.07175,10.95426 -10.42845,18.26428 -19.19627,24.13318 -10.85067,8.84479 -24.29769,15.12109 -38.57086,14.30369 -4.26475,-0.019 -8.52048,-0.38663 -12.75078,-0.90781 z m 37.27255,-38.01933 c -3.31554,-4.1938 -3.43062,1.87001 0,0 z m -33.5,-17.5 c -1.16757,-2.27881 -1.0685,2.26296 0,0 z m -24.33333,-10.16666 c -2.26547,-1.73142 -0.66361,2.17953 0,0 z m -16.66667,-2.83334 c -1.16757,-2.27881 -1.0685,2.26296 0,0 z m -88.33333,-2.16666 c -2.26547,-1.73142 -0.66361,2.17953 0,0 z m 6.33333,0.16666 c -1.16757,-2.27881 -1.0685,2.26296 0,0 z m 2,-2 c -1.16757,-2.27881 -1.0685,2.26296 0,0 z m 28.66667,-4.16666 c -2.26547,-1.73142 -0.66361,2.17953 0,0 z m 22.33333,0.16666 c -1.16757,-2.27881 -1.0685,2.26296 0,0 z m -18.33333,-1.16666 c -2.26547,-1.73142 -0.66361,2.17953 0,0 z m 8.14583,70.98355 c 3.40339,-2.42742 1.14771,2.13354 0,0 z m -20.20147,-7.13003 c -17.50853,-11.24367 -35.47086,-24.88778 -42.84802,-45.14854 7.25362,-7.9252 19.19231,0.50957 28.44114,-0.88819 15.13032,2.53911 30.17003,8.68894 40.95556,19.8953 -8.81983,6.28754 -20.7249,3.53056 -30.88282,4.39164 -4.95425,-0.87715 -14.42218,3.67799 -4.15826,4.93286 14.95026,3.48577 30.37042,1.37215 45.53957,2.11449 6.49156,3.95388 20.8152,11.89244 19.71496,17.30738 -5.47293,0.97944 2.94915,2.3734 -3.94411,1.36458 -10.99716,-2.03601 -21.32215,2.60189 -32.05686,2.45502 -7.75134,1.00308 -14.86199,-1.3811 -20.76116,-6.42454 z m 27.11814,5.20898 c -2.99703,-1.69308 -2.07295,1.74078 0,0 z m -20.72917,-27.83682 c -0.31515,-3.02966 -2.44561,0.417 0,0 z m 5,-0.55902 c 0.25035,-3.23701 -3.96532,3.71496 0,0 z m 30.8125,28.31689 c 3.40339,-2.42742 1.14771,2.13354 0,0 z m 22.1875,-0.81689 c 1.16757,-2.27881 1.0685,2.26296 0,0 z m -4,-2 c 1.16757,-2.27881 1.0685,2.26296 0,0 z m 17,-6 c 1.16757,-2.27881 1.0685,2.26296 0,0 z m 77,-0.88337 c 2.55721,-3.65834 5.01675,2.1213 0,0 z m -81,-8.11663 c 1.16757,-2.27881 1.0685,2.26296 0,0 z m -81,-7 c 1.16757,-2.27881 1.0685,2.26296 0,0 z m 121.8125,-11.18311 c 3.40355,-2.42752 1.14743,2.13391 0,0 z m -10.8125,-5.81689 c 1.16757,-2.27881 1.0685,2.26296 0,0 z m -18,-5 c 1.16757,-2.27881 1.0685,2.26296 0,0 z m 2,0 c 1.16757,-2.27881 1.0685,2.26296 0,0 z m -8,-2 c 1.16757,-2.27881 1.0685,2.26296 0,0 z m -9,-6 c 1.16757,-2.27881 1.0685,2.26296 0,0 z m -4,-4 c 1.16757,-2.27881 1.0685,2.26296 0,0 z m -20,-3 c 1.16757,-2.27881 1.0685,2.26296 0,0 z m -1,-2 c 1.16757,-2.27881 1.0685,2.26296 0,0 z"
         id="path2219" />
      <path
         style="fill:#ffce2a;fill-opacity:0.765125"
         d="m 468.22836,268.85635 c -2.5559,-9.20926 -15.92968,-16.39093 -14.12074,-25.36704 9.83303,-3.75077 21.02843,-0.55347 30.81093,-5.31941 8.27872,-4.09923 21.75678,-5.80009 25.52765,-14.48 -5.81633,-5.39977 -12.17356,-11.47345 -20.46587,-13.43978 -4.51582,-4.1429 -14.94353,-4.47514 -18.66848,-9.54461 -6.63022,-3.06932 -17.29903,-7.79483 -18.91478,-10.37833 -12.7279,0.38345 -23.19152,-9.22841 -35.89812,-8.86074 -9.20063,-1.50801 -18.31769,-3.0768 -27.57112,-4.09949 -11.36287,2.29769 -22.68737,5.46338 -34.2774,6.87905 -6.63173,1.25381 -18.7065,7.1806 -22.48988,2.09253 9.39572,-9.02891 23.47246,-7.91172 35.41498,-10.37469 13.1625,-1.68828 26.46166,-3.02325 39.24089,-6.77476 -16.10497,1.22561 -31.77957,6.31555 -48.02225,6.02521 31.50967,-6.6341 63.4852,-12.33991 93.44575,-24.54257 20.30329,-6.51174 44.74098,-9.0764 63.03523,4.08946 18.68884,14.12013 23.59856,39.52968 21.49139,61.66236 -0.64466,10.78924 -3.53852,22.57595 -12.80388,29.22874 -8.95608,10.35044 -19.9148,19.71489 -33.68191,22.53526 -6.99915,1.59369 -15.63833,2.78335 -22.05239,0.66881 z m 39.66667,-50.66666 c -2.02065,0.49012 1.40822,1.84522 0,0 z m -35.66667,-19.83334 c -1.16757,-2.27881 -1.0685,2.26296 0,0 z m -139,-12 c -1.16757,-2.27881 -1.0685,2.26296 0,0 z m 105,-2.5 c -2.89646,-4.32227 -2.81349,3.56619 0,0 z m -22.27083,-3.60416 c -2.99698,-1.69303 -2.07321,1.74043 0,0 z m -9.72917,-7.89584 c -1.16757,-2.27881 -1.0685,2.26296 0,0 z m -47.32086,77.48759 c -14.5421,-10.76972 -29.71068,-23.23121 -35.23922,-41.18851 12.52468,-3.94228 25.49691,0.82731 37.95823,2.61944 4.37738,0.97326 19.91288,4.6697 14.03971,9.37751 -11.44506,1.90601 -23.31132,2.12394 -34.4321,5.39144 -4.68703,7.85094 10.84785,9.6912 16.36029,12.51027 14.82757,3.71843 30.23211,1.4846 45.29246,2.41537 5.58568,-0.57179 21.12905,12.12614 7.66449,11.00392 -14.64013,0.21212 -29.18087,2.54131 -43.823,3.06599 -2.60695,-1.73181 -5.21391,-3.46362 -7.82086,-5.19543 z m -12.67914,-21.3806 c 1.95235,-3.5805 3.70695,1.58563 0,0 z m -2.25,-2.26927 c 2.47312,-1.40786 2.63896,2.3548 0,0 z m 14.11481,-0.84972 c 5.18865,-3.79777 6.3795,2.30815 -0.31294,1.23805 -2.15127,0.84926 -2.2901,-1.9075 0.31294,-1.23805 z m 10.95315,-1.70595 c 3.67899,-3.17576 4.67077,2.36044 0,0 z m 6.43204,-1.47137 c 4.6895,-1.32603 3.91855,1.63731 0,0 z m 6.26008,-1.32699 c 4.12092,-3.18825 1.95423,4.35695 0,0 z m 108.98992,-7.98369 c 4.44261,-4.95015 4.04406,4.89799 0,0 z m -26.5,-12.5 c 1.16757,-2.27881 1.0685,2.26296 0,0 z M 353.56169,176.18969 c 2.26547,-1.73142 0.66361,2.17953 0,0 z"
         id="path2218" />
      <path
         style="fill:#ffce2a;fill-opacity:0.765125"
         d="m 476.22836,268.93372 c 1.68172,-8.42036 -10.37442,-13.41924 -13.03984,-21.09817 -0.68348,-11.30284 16.13061,-4.72777 22.75998,-9.99965 12.79485,-4.23554 25.88032,-10.39653 34.5791,-20.96008 -0.0559,-4.88462 -6.34522,-4.5294 -4.17355,-9.39626 -7.42525,-2.88052 -13.46348,-7.14737 -16.90601,-11.80179 -0.77388,0.23102 -9.76566,-1.41927 -5.57553,-4.60424 -8.34444,1.75661 -14.53047,-6.00889 -20.16147,-10.58086 -7.22842,-2.19586 -16.11488,-2.91798 -20.07126,-9.24644 -8.58745,-2.84236 -20.93745,-4.13531 -27.64929,-5.84608 3.44963,-2.27219 13.7279,-6.93389 3.8292,-4.13728 -23.03127,7.23895 -46.78113,12.74895 -70.9575,13.98906 30.67223,-6.6502 61.95428,-11.78415 91.11492,-23.84235 21.33128,-7.12488 47.64522,-10.50917 66.54823,4.39121 16.08222,12.95821 21.59492,34.72546 20.36126,54.59467 0.43131,10.79961 -2.37599,22.06032 -9.97456,30.02925 -10.68953,17.5741 -30.40865,30.58479 -51.47163,29.13502 l -0.78901,-0.40882 z m 35.66667,-64.74403 c -2.26547,-1.73142 -0.66361,2.17953 0,0 z m -31.66667,-20.83334 c -1.16757,-2.27881 -1.0685,2.26296 0,0 z m -17,-8 c -1.16757,-2.27881 -1.0685,2.26296 0,0 z m -2.5,-2.5 c -2.02874,-3.44385 -1.93643,4.06147 0,0 z m -20.5,-14.5 c -1.16757,-2.27881 -1.0685,2.26296 0,0 z m -89.28679,85.42751 c -9.27165,-7.65817 -18.50105,-15.99706 -23.98143,-26.90089 9.47122,13.21166 24.3326,23.01273 40.92393,23.44375 12.91762,1.12437 26.02141,-0.5095 38.82555,1.98263 -6.7203,4.78714 -15.72551,2.26826 -23.42505,3.64203 -10.6759,0.44883 -23.36513,6.5155 -32.343,-2.16752 z m -11.90071,-28.61062 c 3.40355,-2.42752 1.14743,2.13391 0,0 z m -13.775,-2.24682 c 5.83417,-11.34159 21.92609,-2.51819 31.52147,-2.47164 4.23031,4.03431 -12.7012,2.14033 -4.36756,0.96273 -9.16615,-1.80271 -18.20517,5.87933 -27.15391,1.50891 z m 18.775,1.24682 c 3.40355,-2.42752 1.14743,2.13391 0,0 z m 17.1875,-2.81689 c 1.16757,-2.27881 1.0685,2.26296 0,0 z m 132.33333,-13.16666 c 2.26547,-1.73142 0.66361,2.17953 0,0 z m -19.33333,-14.83334 c 1.16757,-2.27881 1.0685,2.26296 0,0 z m -5.89961,-2.79547 c -1.8159,-4.55272 3.91751,5.35104 0,0 z m 3.89961,1.79547 c 1.16757,-2.27881 1.0685,2.26296 0,0 z m -19,-5 c 1.16757,-2.27881 1.0685,2.26296 0,0 z"
         id="path2217" />
      <path
         style="fill:#ffce2a;fill-opacity:0.765125"
         d="m 477.22836,269.27803 c 12.6441,1.828 7.7839,-13.74877 -0.54488,-15.92499 -8.11502,-5.74426 -4.80187,-15.6956 5.10669,-14.08517 16.22725,-4.90747 33.91118,-12.25494 42.47675,-27.8386 5.82437,-7.54982 -0.0696,-19.28182 -4.52099,-17.60448 6.56738,-3.79557 -2.45489,-3.93733 -4.16867,-7.92029 -6.38761,-1.36054 -12.95161,-6.27856 -13.72334,-10.24345 -8.1423,0.86116 -2.76218,-10.01353 -11.57968,-8.59577 -7.75896,-0.20025 -10.33902,-11.61742 -18.7638,-9.23764 1.64915,-2.76324 -10.09894,-1.90938 -13.73092,-3.45893 -10.67968,-0.83035 -20.62591,4.30728 -30.73052,7.02015 -21.91193,8.02595 -45.07021,12.20415 -68.2947,13.90684 31.26523,-6.62483 63.04937,-12.17822 92.72401,-24.47028 17.08852,-5.03492 36.0058,-7.48481 53.24046,-1.89838 21.22948,8.56701 32.88087,32.34787 32.07261,54.46253 2.03057,12.2687 -3.10529,23.21695 -8.68951,33.55166 -8.9722,19.22582 -29.35653,33.24336 -50.87351,32.3368 z m 37.66667,-85.08834 c -2.26547,-1.73142 -0.66361,2.17953 0,0 z m -1.89561,-2.14652 c -3.47018,-2.04476 -1.09732,4.2398 0,0 z m -4.77106,-2.68682 c -1.16757,-2.27881 -1.0685,2.26296 0,0 z m -9,-6.5 c -2.51376,-4.45366 -2.24363,4.24686 0,0 z m -15,-13.5 c -1.16757,-2.27881 -1.0685,2.26296 0,0 z m 0,-2 c -1.16757,-2.27881 -1.0685,2.26296 0,0 z m -136.5,83.60167 c -5.55767,-4.30298 -15.43771,-13.46839 -15.67135,-17.40594 8.37253,7.6622 18.28052,13.91806 29.31283,16.87828 -4.41421,1.36864 -9.11929,1.07188 -13.64148,0.52766 z m -20.5,-22.60167 c 1.16757,-2.27881 1.0685,2.26296 0,0 z m 171,-39 c 1.16757,-2.27881 1.0685,2.26296 0,0 z m -7,-5 c 1.16757,-2.27881 1.0685,2.26296 0,0 z m 2.33333,-1.16666 c 2.26547,-1.73142 0.66361,2.17953 0,0 z m -0.33333,-2.33334 c 1.20655,-2.89072 0.45517,2.47546 0,0 z m 3,-1.5 c 1.16757,-2.27881 1.0685,2.26296 0,0 z m -18,-4 c 1.16757,-2.27881 1.0685,2.26296 0,0 z"
         id="path2216" />
      <path
         style="fill:#ffce2a;fill-opacity:0.765125"
         d="m 487.22836,267.35635 c 1.16757,-2.27881 1.0685,2.26296 0,0 z m 2.33333,-1.16666 c 2.26547,-1.73142 0.66361,2.17953 0,0 z m 4.44137,-2.13794 c -0.20837,-5.21798 -8.09486,-6.51086 -8.52364,-12.35396 -4.90231,-3.77719 -10.69576,-13.1424 -0.0419,-13.31407 14.54847,-5.86683 31.69515,-11.95039 38.73743,-27.21266 7.23099,-21.214 -5.98118,-44.30713 -23.71243,-55.81893 -10.80342,-6.75444 -23.96598,-5.27404 -35.91312,-3.49012 -24.84272,2.67135 -47.30266,15.03552 -71.90521,18.99049 -9.74153,1.2052 -19.47577,3.85504 -29.3263,3.40611 30.20265,-6.11608 60.78904,-11.77734 89.30637,-23.86453 15.9421,-4.91056 33.32414,-5.7624 49.63094,-2.35084 22.06171,7.05779 33.96834,30.92049 34.66829,52.89992 3.14388,11.65171 -4.9528,20.28838 -7.34251,31.13042 -4.65665,15.28488 -17.40795,28.17678 -32.63911,33.04679 -1.56552,1.18229 -7.65217,0.96625 -2.93886,-1.06862 z m -2.7747,-6.6954 c -1.16757,-2.27881 -1.0685,2.26296 0,0 z M 335.76495,229.68583 c -4.59275,-2.87001 -4.90772,-8.70355 0.2733,-2.80762 3.43376,1.67278 10.09916,10.48037 1.93681,5.10354 l -1.12598,-1.12775 z m -8.53659,-11.32948 c 1.16757,-2.27881 1.0685,2.26296 0,0 z m 30.8125,-43.18311 c 3.40355,-2.42752 1.14743,2.13391 0,0 z m 159.1875,0.18311 c 1.16757,-2.27881 1.0685,2.26296 0,0 z"
         id="path2215" />
      <path
         style="fill:#ffce2a;fill-opacity:0.765125"
         d="m 501.25971,258.81581 c -4.2758,-6.2557 -18.06591,-15.16032 -9.52113,-22.73805 13.67651,-5.78429 29.88855,-13.20149 33.94457,-28.94846 4.37942,-24.20152 -12.77449,-50.2612 -36.54792,-56.15146 -26.07087,-4.46252 -50.77023,7.15153 -75.07799,14.50757 -11.48642,3.23669 -23.20491,5.60769 -35.00377,7.37094 11.71628,-6.71165 25.98201,-4.93926 38.23488,-10.19496 21.86738,-6.5149 43.13912,-17.74474 66.58279,-16.42825 13.29792,-0.68752 27.47562,2.90776 36.47541,13.32402 12.44623,12.57539 17.03231,30.88415 16.92415,48.07806 -5.15202,7.5936 -6.56342,15.76839 -7.5304,24.68766 -3.38882,11.03762 -11.55038,19.97989 -20.83977,26.51816 4.15632,-6.23062 -7.83972,5.00737 -7.64082,-0.0252 z M 332.66545,225.60635 c -4.30041,-5.2899 5.51725,5.10135 1.25382,1.18435 z m -3.43709,-4.25 c 1.16757,-2.27881 1.0685,2.26296 0,0 z m 29,-46 c 1.16757,-2.27881 1.0685,2.26296 0,0 z m 6,-1 c 1.16757,-2.27881 1.0685,2.26296 0,0 z m 4.26903,-1.19299 c 3.29617,-1.89196 2.46474,1.76615 0,0 z m 5.48097,-0.96929 c 2.47312,-1.40786 2.63896,2.3548 0,0 z m 93.58333,-21.00438 c 2.26547,-1.73142 0.66361,2.17953 0,0 z"
         id="path2214" />
      <path
         style="fill:#ffce2a;fill-opacity:0.765125"
         d="m 506.11769,254.19386 c -8.13526,-5.23681 -16.73279,-20.42232 -2.47083,-23.69726 10.97305,-5.59101 22.82668,-14.81744 22.69697,-28.36795 1.6122,-26.4054 -20.98589,-53.4681 -48.31312,-52.34437 -16.14782,-0.37866 -31.46964,5.27449 -46.87036,9.20936 5.20471,-3.21456 12.44951,-5.29616 18.65931,-7.49347 18.3432,-5.74461 39.10409,-8.86673 57.36323,-1.25138 19.54088,9.42827 30.55797,31.96923 29.16575,53.18704 -9.17341,9.51668 -1.39791,24.22559 -8.73094,34.64883 -4.58308,7.53766 -14.08579,13.22055 -21.50001,16.1092 z"
         id="path2213" />
      <path
         style="fill:#ffce2a;fill-opacity:0.765125"
         d="m 508.39638,246.45021 c -8.1769,-6.2968 -8.0945,-19.15682 3.40042,-20.7247 9.87984,-6.64188 17.73682,-18.51838 14.63682,-30.82445 -2.8511,-22.76231 -21.80996,-44.81758 -45.83238,-45.00106 -15.43059,-0.95182 -30.44935,3.58083 -45.07803,7.89048 8.99675,-6.41357 20.67397,-7.93291 31.26184,-10.41171 18.49142,-3.56781 40.39669,-2.31793 53.80903,12.62766 9.38167,9.73367 14.89636,22.99694 15.52577,36.47355 -8.78365,6.78825 -2.39357,18.41967 -3.92709,27.49378 -4.0796,9.92531 -11.93155,22.55095 -22.09258,25.53855 -0.9161,-0.78154 -1.40003,-1.92926 -1.7038,-3.0621 z m -79.83469,-87.26052 c 2.26547,-1.73142 0.66361,2.17953 0,0 z"
         id="path2212" />
      <path
         style="fill:#ffce2a;fill-opacity:0.765125"
         d="m 515.42512,246.45996 c -4.88608,-7.1935 -13.62005,-19.17649 -0.52341,-23.06393 8.98432,-7.06763 14.893,-19.13573 11.25608,-30.53097 -3.78778,-21.56037 -21.56482,-42.36375 -44.55378,-42.99638 -16.11981,-1.24633 -31.73832,3.87438 -47.03651,8.2084 11.70947,-6.83571 25.38263,-9.73914 38.6933,-11.66104 16.12954,-2.0445 34.22467,0.0296 46.07415,12.33608 7.59504,7.26804 12.96198,16.82396 15.25795,27.07959 -5.77053,7.76827 -2.62644,16.51329 -2.66631,25.35494 0.16845,7.8241 -1.77712,16.4453 -8.21479,21.51115 -2.56852,4.63326 -3.34152,10.89669 -8.28668,13.76216 z m -86.86343,-87.27027 c 2.26547,-1.73142 0.66361,2.17953 0,0 z"
         id="path2211" />
      <path
         style="fill:#ffce2a;fill-opacity:0.765125"
         d="m 517.65857,237.4343 c -9.93656,-7.39382 -1.34087,-17.66713 5.47225,-22.85788 8.03457,-14.27733 1.98782,-31.93569 -6.30776,-44.67456 -10.40744,-15.2512 -29.75013,-23.25302 -47.9046,-20.00518 -12.22853,1.31196 -23.97725,5.13724 -35.70455,8.65091 17.40487,-9.08295 37.45439,-13.61136 57.06885,-12.44512 13.98062,0.84936 27.34045,7.99468 35.12305,19.75905 5.52684,4.77271 6.50064,14.00828 5.9208,18.12117 0.56712,2.77484 -3.52811,11.51925 -0.0166,16.98897 5.38907,12.26165 -7.86118,19.67382 -7.67988,31.62582 -0.62146,1.9714 -3.48046,7.87321 -5.97154,4.83682 z m 2.56979,-0.078 c -1.16757,-2.27881 -1.0685,2.26296 0,0 z m 9.33333,-18.16666 c 2.26547,-1.73142 0.66361,2.17953 0,0 z M 428.22836,159.35635 c 1.16757,-2.27881 1.0685,2.26296 0,0 z"
         id="path2210" />
      <path
         style="fill:#ffce2a;fill-opacity:0.765125"
         d="m 522.30993,233.04734 c -10.82638,-8.04675 1.54693,-18.43188 4.07279,-26.79368 3.2421,-18.23065 -7.04385,-36.54475 -20.71274,-47.95666 -15.30845,-11.80679 -36.05229,-10.28631 -53.61283,-5.2377 -5.05189,1.10673 -17.19048,5.49876 -17.5203,4.8223 18.05253,-9.06635 38.81134,-13.54597 58.96876,-11.45765 14.70582,2.07729 29.35362,11.11557 35.1093,25.1698 -1.33151,10.86605 2.12295,20.75595 3.00712,31.82761 -3.39785,8.94853 -6.90315,17.48908 -7.70601,27.25009 l -0.69805,1.21182 z"
         id="path2209" />
      <path
         style="fill:#ffce2a;fill-opacity:0.765125"
         d="m 524.22836,223.85635 c 1.20655,-2.89072 0.45517,2.47546 0,0 z m 0,-4 c -6.22224,-3.91633 5.93501,-11.34187 1.85095,-1.67182 0.29422,1.6037 -0.94776,5.53072 -1.85095,1.67182 z m 3,-21.60565 c -1.65737,-24.90516 -22.5982,-49.24226 -48.60346,-49.02139 -15.37453,-0.36405 -30.06368,4.85649 -44.6196,9.10572 13.30574,-7.38674 28.57176,-10.62267 43.54544,-12.41745 16.56955,-1.16498 35.08571,3.24166 45.67823,16.95448 0.97388,11.90874 6.27387,23.18782 7.50334,34.75144 -0.20452,3.69206 -2.79406,4.95059 -3.50395,0.6272 z"
         id="path2208" />
      <path
         style="fill:#ffce2a;fill-opacity:0.765125"
         d="m 525.22836,210.85635 c 1.20655,-2.89072 0.45517,2.47546 0,0 z m 0.0747,-24.25 c -6.32811,-20.04849 -24.67699,-38.40127 -46.88437,-37.27554 -15.32919,-0.39776 -29.99286,4.76071 -44.51261,8.98032 14.86498,-7.79921 31.72204,-11.66341 48.40633,-12.58723 14.41219,-0.19258 29.53252,4.35707 39.59631,15.0897 -10.00843,4.73607 7.35916,14.67315 6.11541,22.74082 1.28988,3.71997 -0.24648,10.95455 -2.72107,3.05193 z"
         id="path2207" />
      <path
         style="fill:#ffce2a;fill-opacity:0.765125"
         d="m 525.95585,183.16269 c -8.71085,-10.79161 -14.66092,-25.58271 -28.96301,-30.16723 -18.99349,-8.05735 -40.02162,-1.71902 -58.60667,3.55579 8.31204,-4.52621 18.40429,-6.70902 27.76001,-8.95394 16.6891,-3.24744 36.50877,-3.04065 49.83953,8.8063 -8.11532,2.8075 5.88758,9.43597 6.79751,15.09037 0.87977,1.49382 8.02998,13.9734 3.17263,11.66871 z m -93.72749,-24.80634 c 1.16757,-2.27881 1.0685,2.26296 0,0 z"
         id="path2206" />
      <path
         style="fill:#ffce2a;fill-opacity:0.765125"
         d="m 516.33239,169.27202 c -10.91972,-18.14131 -34.81085,-23.37697 -54.33663,-18.82008 -5.58596,0.38585 -20.61429,6.22405 -20.15975,4.50015 19.25341,-8.17476 41.5874,-11.8434 61.92504,-5.80573 -0.80385,7.80686 14.57382,10.79137 17.9028,20.34301 4.34625,9.38818 -3.4961,3.77853 -5.33146,-0.21735 z"
         id="path2205" />
      <path
         style="fill:#ffce2a;fill-opacity:0.765125"
         d="m 512.45426,163.92725 c -2.04605,-5.41928 -15.9984,-9.65977 -13.95654,-11.79287 7.63505,2.18619 21.29678,10.05025 19.32426,17.11028 -2.05301,-1.495 -3.46842,-3.66001 -5.36772,-5.31741 z m -22.89257,-13.73756 c 2.26547,-1.73142 0.66361,2.17953 0,0 z m -26.33333,-1.99166 c 6.9027,-1.4897 23.00895,-3.14567 24.2612,-1.44328 -6.54907,0.87323 -24.30593,4.48929 -24.2612,1.44328 z"
         id="path2204" />
      <path
         style="fill:#ffce2a;fill-opacity:0.765125"
         d="m 511.72215,161.00667 c -4.15141,-2.71336 -13.7585,-7.35438 -14.40078,-8.93462 5.18596,1.9205 12.44004,2.84805 14.40078,8.93462 z m -22.49379,-10.65032 c 1.16757,-2.27881 1.0685,2.26296 0,0 z"
         id="path2203" />
      <path
         style="fill:#ffce2a;fill-opacity:0.765125"
         d="m 499.56169,153.18969 c 2.26547,-1.73142 0.66361,2.17953 0,0 z m -3,-1 c 2.26547,-1.73142 0.66361,2.17953 0,0 z m -2.33333,-0.83334 c 1.16757,-2.27881 1.0685,2.26296 0,0 z"
         id="path2202" />
    </g>
  </g>
</svg>
