<svg version="1.1" id="Layer_1" xmlns="http://www.w3.org/2000/svg" xmlns:xlink="http://www.w3.org/1999/xlink" x="0px" y="0px" viewBox="0 0 500 500" style="width: 151px;" xml:space="preserve" data-imageid="noodles-17" imageName="Noodles" class="illustrations_image">
<style type="text/css">
	.st0_noodles-17{fill:#231F20;}
	.st1_noodles-17{fill:#FFFFFF;}
	.st2_noodles-17{fill:#68E1FD;}
	.st3_noodles-17{fill:#D1D3D4;}
</style>
<g id="Noodle_and_Bowl_noodles-17">
	<path class="st0_noodles-17" d="M308.5,265.6v104.1c-20.8,12.7-48.6,21.1-85.9,21.1s-65.1-8.4-85.9-21.1V265.6H308.5z"/>
	<path class="st0_noodles-17" d="M222.6,391.6c-34.3,0-63.3-7.1-86.3-21.3c-0.2-0.1-0.4-0.4-0.4-0.6V265.6c0-0.4,0.3-0.8,0.8-0.8h171.8&#10;&#9;&#9;c0.4,0,0.8,0.3,0.8,0.8v104.1c0,0.3-0.1,0.5-0.4,0.6C286,384.5,256.9,391.6,222.6,391.6z M137.5,369.3&#10;&#9;&#9;c22.7,13.8,51.3,20.8,85.1,20.8s62.5-7,85.1-20.8v-103H137.5V369.3z"/>
	<path class="st1_noodles-17" d="M381.1,209.3c-0.2,21.7-3.7,43.3-10.3,64c-6.2,19.1-15.8,39.1-30.7,56.5c-23.5,27.3-60.1,47.9-116.6,47.9&#10;&#9;&#9;c-56.1,0-92.6-20.3-116.1-47.2c-15-17.2-24.8-37.1-31-56.2c-6.8-21-10.4-42.8-10.6-64.9c0-40.3,70.6-72.9,157.7-72.9&#10;&#9;&#9;S381.1,169,381.1,209.3z"/>
	<path class="st0_noodles-17" d="M223.4,378.3c-49.9,0-89.1-16-116.6-47.5c-13.4-15.4-23.9-34.4-31.1-56.5c-6.8-21-10.4-43-10.6-65.1&#10;&#9;&#9;c0-40.6,71-73.6,158.4-73.6s158.4,33,158.4,73.6c-0.2,21.8-3.7,43.5-10.3,64.2c-7.1,22.1-17.5,41.2-30.9,56.7&#10;&#9;&#9;C313.1,362.1,273.7,378.3,223.4,378.3z M223.4,137c-86.6,0-157,32.4-157,72.2c0.2,22,3.8,43.8,10.6,64.6&#10;&#9;&#9;c7.2,21.9,17.5,40.7,30.9,56c27.2,31.2,66.1,47,115.6,47c49.8,0,88.9-16,116.1-47.6c13.2-15.4,23.5-34.3,30.6-56.2&#10;&#9;&#9;c6.6-20.6,10.1-42.1,10.3-63.8C380.4,169.4,310,137,223.4,137L223.4,137z"/>
	<path class="st0_noodles-17" d="M380.3,210.8c0,5.7-1.4,11.3-4,16.4c-3.2,6.5-8.4,12.7-15.2,18.4c-9.3,7.9-21.6,14.9-36.2,20.6&#10;&#9;&#9;c-22.8,9-51.3,15.1-82.6,16.9c-6.4,0.4-13,0.6-19.6,0.6c-16.5,0-33-1.2-49.3-3.6c-57.8-8.8-100.9-32.6-107.5-61.5&#10;&#9;&#9;c-0.6-2.5-0.9-5.1-0.9-7.7c0-40.3,70.6-72.9,157.7-72.9S380.3,170.6,380.3,210.8z"/>
	<path class="st0_noodles-17" d="M222.6,284.5c-16.5,0-33.1-1.2-49.4-3.6c-59.1-9-101.5-33.4-108.1-62.1c-0.6-2.6-0.9-5.2-0.9-7.9&#10;&#9;&#9;c0-40.6,71.1-73.7,158.4-73.7s158.4,33.1,158.4,73.7c0,5.8-1.4,11.6-4.1,16.8c-3.2,6.5-8.4,12.8-15.3,18.7&#10;&#9;&#9;c-9.3,7.9-21.6,14.9-36.5,20.7c-23.6,9.3-52.2,15.2-82.9,16.9C235.7,284.3,229.1,284.5,222.6,284.5z M222.6,138.7&#10;&#9;&#9;c-86.5,0-156.9,32.4-156.9,72.2c0,2.5,0.3,5.1,0.9,7.6c6.4,28.1,48.4,52.1,106.9,61c22.7,3.4,45.8,4.4,68.7,3.1&#10;&#9;&#9;c30.5-1.7,59-7.6,82.4-16.8c14.7-5.8,26.8-12.7,36-20.5c6.8-5.8,11.8-11.9,15-18.2c2.6-5,3.9-10.5,3.9-16.1&#10;&#9;&#9;C379.6,171,309.2,138.7,222.6,138.7z"/>
	<path class="st2_noodles-17 targetColor" d="M222.6,182.9c-17.9,0-35.7,1.4-53.3,4.3c-7.2,1.2-12.8,5.2-20,5.5c-8,0.3-16.3-1.9-24,1.2&#10;&#9;&#9;c-5.3,2.1-9.4,6.5-14.8,8.3c-2.8,1-5.7,1.2-8.5,1.8c-4.4,0.9-8.8,2.8-11.4,6.4c-1.4,2-2.2,4.4-3.3,6.6&#10;&#9;&#9;c-0.9,1.8-14.9,15.9-14.6,16.4c20.5,29.3,79.9,50.5,150,50.5s129.6-21.2,150-50.5c-5.4-7.7-13.9-16-21.1-22&#10;&#9;&#9;c-8-6.7-17.8-10.9-28.2-12.1c-4.9-0.5-10-0.4-14.2-2.9c-3.1-1.8-5.5-4.8-8.4-6.9c-6.1-4.4-14.2-4.5-21.7-3.8&#10;&#9;&#9;C259.9,187.7,242.1,182.9,222.6,182.9z" style="fill: rgb(104, 225, 253);"/>
	<path class="st0_noodles-17" d="M222.6,284.5c-68.8,0-129.4-20.4-150.6-50.8c-0.5-0.6-0.5-0.7,6.9-8.5c3.2-3.4,7.3-7.7,7.7-8.5s0.6-1.4,0.9-2&#10;&#9;&#9;c0.7-1.6,1.5-3.2,2.5-4.7c2.4-3.3,6.5-5.6,11.8-6.7c0.9-0.2,1.9-0.4,2.8-0.5c1.9-0.3,3.8-0.7,5.6-1.2c2.7-1.1,5.3-2.5,7.6-4.2&#10;&#9;&#9;c2.2-1.6,4.6-3,7.2-4.1c5.3-2.1,11-1.8,16.5-1.4c2.6,0.2,5.2,0.3,7.8,0.2c4-0.1,7.4-1.4,11-2.8c2.9-1.2,5.9-2.1,8.9-2.7&#10;&#9;&#9;c17.7-2.9,35.5-4.3,53.4-4.3c8,0.1,16,0.7,23.9,1.7c11,1.2,21.4,2.3,32.4,1.2c6.3-0.6,15.5-1,22.2,3.9c1.3,0.9,2.5,2,3.6,3.1&#10;&#9;&#9;c1.4,1.4,3,2.7,4.7,3.8c3.3,1.9,7.2,2.2,11.1,2.5c1,0.1,2,0.2,2.9,0.3c10.5,1.2,20.4,5.5,28.5,12.2c8.5,7.1,16.5,15.3,21.2,22.1&#10;&#9;&#9;c0.2,0.2,0.2,0.6,0,0.8C352,264.1,291.5,284.5,222.6,284.5z M73.4,233.2c21.2,29.8,81.1,49.8,149.2,49.8s127.9-20,149.2-49.8&#10;&#9;&#9;c-4.7-6.6-12.4-14.6-20.7-21.4c-7.9-6.6-17.6-10.7-27.9-11.9c-1-0.1-1.9-0.2-2.9-0.3c-4-0.3-8.1-0.7-11.6-2.7c-1.8-1.1-3.5-2.5-5-4&#10;&#9;&#9;c-1.1-1.1-2.3-2.1-3.5-3c-6.4-4.6-15.2-4.3-21.2-3.6c-11.1,1.1-22.1-0.1-32.7-1.2c-7.9-1-15.8-1.6-23.8-1.7&#10;&#9;&#9;c-17.8,0-35.6,1.4-53.2,4.3c-3,0.6-5.9,1.5-8.7,2.6c-3.6,1.3-7.2,2.7-11.4,2.9c-2.6,0.1-5.3-0.1-7.9-0.2&#10;&#9;&#9;c-5.3-0.3-10.8-0.7-15.9,1.3c-2.4,1.1-4.7,2.4-6.9,4c-2.4,1.8-5.1,3.3-7.9,4.4c-1.9,0.6-3.9,1-5.8,1.3c-0.9,0.2-1.9,0.3-2.8,0.5&#10;&#9;&#9;c-3.5,0.7-8.2,2.4-11,6.1c-0.9,1.4-1.7,2.8-2.3,4.4c-0.3,0.7-0.6,1.4-1,2.1c-0.5,0.9-3.3,4-7.9,8.9&#10;&#9;&#9;C77.4,228.9,74.2,232.2,73.4,233.2z"/>
	<path class="st0_noodles-17" d="M180.8,282.1c-0.4,0-0.7-0.3-0.7-0.7c0-0.2,0.1-0.3,0.2-0.5c0.8-1,21.1-24.8,93.5-34.6c42-5.7,87-1.4,87.4-1.4&#10;&#9;&#9;c0.4,0,0.7,0.3,0.7,0.7c0,0.4-0.3,0.7-0.7,0.7c0,0-0.1,0-0.1,0c-0.5,0-45.3-4.3-87.1,1.4c-71.8,9.7-92.4,33.8-92.6,34&#10;&#9;&#9;C181.3,282,181.1,282.1,180.8,282.1z"/>
	<path class="st0_noodles-17" d="M194.6,281.7c-0.2,0-0.5-0.1-0.6-0.4c-0.2-0.3-0.1-0.7,0.2-1c0,0,0,0,0.1,0c0.3-0.1,26.7-15.5,75.9-22.5&#10;&#9;&#9;s79.9-4.8,80.2-4.7c0.4,0,0.7,0.4,0.6,0.8c0,0.4-0.4,0.7-0.7,0.7c0,0,0,0,0,0c-0.3,0-30.9-2.3-79.9,4.7c-49,7-75.2,22.3-75.4,22.4&#10;&#9;&#9;C194.9,281.7,194.8,281.7,194.6,281.7z"/>
	<path class="st0_noodles-17" d="M213.6,284.5c-0.3,0-0.5-0.1-0.6-0.4c-0.2-0.3-0.1-0.8,0.3-0.9c0,0,0,0,0,0c0.3-0.1,28.1-14.7,63-17.4&#10;&#9;&#9;s51.6-2,51.7-2c0.4,0,0.7,0.4,0.7,0.7c0,0.4-0.3,0.7-0.7,0.7c0,0,0,0,0,0c-0.2,0-16.9-0.8-51.5,2s-62.1,17.1-62.4,17.3&#10;&#9;&#9;C213.8,284.4,213.7,284.5,213.6,284.5z"/>
	<path class="st0_noodles-17" d="M242.2,283.9c-0.4,0-0.7-0.3-0.7-0.7c0-0.3,0.1-0.5,0.4-0.6c0.2-0.1,23.2-12.9,61.9-11.7&#10;&#9;&#9;c0.4,0,0.7,0.3,0.7,0.7c0,0.4-0.3,0.7-0.7,0.7c-38.4-1.2-61,11.4-61.2,11.6C242.5,283.9,242.4,283.9,242.2,283.9z"/>
	<path class="st0_noodles-17" d="M118.2,265.1c-0.1,0-0.2,0-0.3-0.1c-22.9-11-31.4-45.4-31.5-45.8c-0.1-0.4,0.1-0.8,0.4-0.9&#10;&#9;&#9;c0.4-0.1,0.8,0.1,0.9,0.4c0,0.1,0,0.1,0,0.2c0.1,0.3,8.5,34.1,30.8,44.9c0.3,0.2,0.5,0.6,0.3,0.9&#10;&#9;&#9;C118.7,265,118.4,265.2,118.2,265.1z"/>
	<path class="st0_noodles-17" d="M135.6,270.8c-0.2,0-0.3,0-0.4-0.1c-29.4-21.6-38.9-58.9-39-59.3c-0.1-0.4,0.1-0.7,0.5-0.8c0,0,0,0,0,0&#10;&#9;&#9;c0.4-0.1,0.8,0.1,0.8,0.5c0,0,0,0,0,0c0.1,0.4,9.5,37.2,38.5,58.5c0.3,0.2,0.4,0.7,0.1,1C136.1,270.7,135.9,270.8,135.6,270.8&#10;&#9;&#9;L135.6,270.8z"/>
	<path class="st0_noodles-17" d="M155.2,277.4c-0.1,0-0.2,0-0.4-0.1c-0.2-0.1-24.4-13.8-32.6-34.6c-5-12.5-8.7-25.4-11.2-38.6&#10;&#9;&#9;c-0.1-0.4,0.2-0.7,0.6-0.8c0.4-0.1,0.7,0.2,0.8,0.6c0,0,0,0,0,0c2.5,13.1,6.2,25.9,11.1,38.4c8.1,20.4,31.8,33.8,32,33.9&#10;&#9;&#9;c0.3,0.2,0.5,0.6,0.3,1C155.7,277.2,155.4,277.4,155.2,277.4L155.2,277.4z"/>
	<path class="st0_noodles-17" d="M182.1,279.7H182c-0.3-0.1-29.9-7-44.4-39.4c-13.5-30.2-9.3-43.7-9.1-44.3c0.1-0.4,0.5-0.6,0.9-0.4&#10;&#9;&#9;c0.4,0.1,0.6,0.5,0.4,0.9c0,0.1-4.2,13.6,9,43.2c14.1,31.7,43.1,38.5,43.4,38.6c0.4,0.1,0.6,0.4,0.6,0.8&#10;&#9;&#9;C182.8,279.5,182.5,279.7,182.1,279.7L182.1,279.7z"/>
	<path class="st0_noodles-17" d="M277,245.8c-0.2,0-0.3-0.1-0.4-0.1c-0.3-0.2-33-24.3-70.2-25.5c-30.2-0.9-55.6,5.9-65.1,8.5&#10;&#9;&#9;c-3.5,0.9-4,1.1-4.4,0.9c-0.4-0.1-0.6-0.5-0.4-0.9c0.1-0.3,0.4-0.5,0.8-0.5c0.4,0,1.9-0.4,3.7-0.9c9.6-2.6,35.2-9.5,65.5-8.5&#10;&#9;&#9;c37.6,1.2,70.6,25.5,71,25.8c0.3,0.2,0.4,0.7,0.2,1c0,0,0,0,0,0C277.5,245.7,277.2,245.8,277,245.8z"/>
	<path class="st0_noodles-17" d="M260.9,249.4c-0.2,0-0.3,0-0.4-0.1c-0.2-0.1-19.1-13.8-48.6-18s-69.9,7.4-70.3,7.5c-0.4,0.1-0.8-0.1-0.8-0.5&#10;&#9;&#9;c-0.1-0.4,0.1-0.7,0.4-0.8c0.4-0.1,41.1-11.8,70.9-7.5s49,18.1,49.2,18.3c0.3,0.2,0.4,0.7,0.2,1c0,0,0,0,0,0&#10;&#9;&#9;C261.3,249.3,261.1,249.4,260.9,249.4z"/>
	<path class="st0_noodles-17" d="M242.7,253.3c-0.2,0-0.3-0.1-0.4-0.1c-0.1-0.1-10.5-7.8-38.7-10.9s-60.5,5.8-60.8,5.9&#10;&#9;&#9;c-0.4,0.1-0.8-0.1-0.9-0.5c-0.1-0.4,0.1-0.7,0.5-0.9c0,0,0,0,0,0c0.3-0.1,32.8-9.1,61.4-5.9s38.9,10.9,39.4,11.2&#10;&#9;&#9;c0.3,0.2,0.4,0.7,0.2,1c0,0,0,0,0,0C243.1,253.2,242.9,253.3,242.7,253.3z"/>
	<path class="st0_noodles-17" d="M222.6,259.2c-0.1,0-0.3,0-0.4-0.1c-0.1,0-7.7-5.4-30.4-5.8c-14-0.2-28,1.4-41.6,4.7c-0.4,0.1-0.8-0.1-0.9-0.5&#10;&#9;&#9;c-0.1-0.4,0.1-0.7,0.5-0.8c13.7-3.4,27.9-5,42-4.8c23.2,0.4,30.9,5.8,31.2,6c0.3,0.2,0.4,0.7,0.2,1c0,0,0,0,0,0&#10;&#9;&#9;C223.1,259.1,222.9,259.2,222.6,259.2z"/>
	<path class="st0_noodles-17" d="M158.4,266.1c-0.1,0-0.3,0-0.4-0.1c-0.4-0.1-0.6-0.5-0.5-0.9c0.1-0.4,0.5-0.6,0.9-0.5c1-0.2,2.1-0.5,3.1-0.8&#10;&#9;&#9;c7.9-2.4,26.6-8,44.8-0.7c0.4,0.1,0.5,0.5,0.4,0.9c-0.1,0.4-0.5,0.5-0.9,0.4l0,0c-17.8-7-36.1-1.6-43.9,0.8&#10;&#9;&#9;C160.7,265.6,159.6,265.9,158.4,266.1z"/>
	<path class="st0_noodles-17" d="M327.5,243.9c-0.2,0-0.4-0.1-0.5-0.2c-0.2-0.2-20.2-23-47-32.8c-26.7-9.7-53.2,9.2-53.5,9.4&#10;&#9;&#9;c-0.3,0.2-0.7,0.2-1-0.1c0,0,0,0,0,0c-0.2-0.3-0.2-0.7,0.1-1c0,0,0,0,0,0c0.3-0.2,27.4-19.6,54.8-9.6c27.2,9.9,47.4,32.9,47.6,33.2&#10;&#9;&#9;c0.3,0.3,0.2,0.7,0,1c0,0,0,0,0,0C327.8,243.8,327.6,243.9,327.5,243.9z"/>
	<path class="st0_noodles-17" d="M312.1,244.6c-0.2,0-0.4-0.1-0.5-0.2c-0.2-0.2-19.8-23.9-42.9-26.9c-22.9-3.1-31.6,5.6-31.7,5.7&#10;&#9;&#9;c-0.3,0.3-0.7,0.3-1,0c0,0,0,0,0,0c-0.3-0.3-0.3-0.7,0-1c0.4-0.4,9.2-9.3,32.9-6.1s43.6,27.2,43.8,27.4c0.2,0.3,0.2,0.7-0.1,1&#10;&#9;&#9;c0,0,0,0,0,0C312.4,244.6,312.3,244.6,312.1,244.6z"/>
	<path class="st0_noodles-17" d="M295.9,244.6c-0.3,0-0.5-0.2-0.6-0.4c0-0.1-4.5-10-22-15.8c-17.2-5.6-21.2-0.3-21.3-0.3&#10;&#9;&#9;c-0.2,0.3-0.7,0.4-1,0.2c-0.3-0.2-0.4-0.7-0.2-1c0.2-0.2,4.4-6.3,22.9-0.3c18.2,5.9,22.7,16.1,22.9,16.6c0.2,0.4,0,0.8-0.4,0.9&#10;&#9;&#9;c0,0,0,0,0,0C296.1,244.6,296,244.6,295.9,244.6z"/>
	<path class="st2_noodles-17 targetColor" d="M130,211.6c3.5-5.8,8.6-13.5,14.2-17.2c4-2.7,8.8-3.7,12.8-6.7c4.3-3.2,8.2-7,12.8-9.9&#10;&#9;&#9;c6.7-4.1,14.6-5.7,22.3-4.6c5.2,0.7,10.3,2.7,15.5,2.8c3.3-0.1,6.5-0.4,9.8-0.9c10.7-1.1,18.7,2.8,28.7,5.2c9.2,2,17.8,6,25.4,11.7&#10;&#9;&#9;" style="fill: rgb(104, 225, 253);"/>
	<path class="st0_noodles-17" d="M130,212.3c-0.1,0-0.3,0-0.4-0.1c-0.3-0.2-0.5-0.6-0.3-1c0,0,0,0,0,0c5.2-8.8,10-14.5,14.5-17.5&#10;&#9;&#9;c1.9-1.2,3.9-2.2,6-3c2.4-0.9,4.7-2.2,6.8-3.6c1.6-1.2,3.2-2.5,4.7-3.8c2.6-2.2,5.3-4.3,8.2-6.2c6.8-4.2,14.9-5.8,22.8-4.8&#10;&#9;&#9;c2.1,0.3,4.2,0.8,6.2,1.3c3,0.8,6.1,1.3,9.2,1.5c2.2,0,4.4-0.2,6.6-0.5c1-0.1,2-0.3,3-0.4c8.1-0.8,14.6,1.1,21.6,3.1&#10;&#9;&#9;c2.4,0.7,4.8,1.4,7.4,2c10.2,2.5,18.4,6.2,25.6,11.9c0.3,0.2,0.4,0.7,0.1,1c-0.2,0.3-0.7,0.4-1,0.1c-7.1-5.4-15.1-9.1-25.1-11.5&#10;&#9;&#9;c-2.6-0.6-5.1-1.4-7.4-2.1c-6.8-2-13.2-3.9-21-3.1c-1,0.1-2,0.2-3,0.4c-2.3,0.4-4.5,0.5-6.8,0.6c-3.2-0.2-6.4-0.7-9.5-1.5&#10;&#9;&#9;c-2-0.5-4.1-1-6.1-1.2c-7.6-1-15.3,0.6-21.9,4.6c-2.8,1.8-5.5,3.8-8,6c-1.5,1.3-3.1,2.6-4.7,3.8c-2.2,1.5-4.6,2.8-7.1,3.8&#10;&#9;&#9;c-2,0.8-3.9,1.8-5.7,2.9c-4.3,2.9-8.9,8.4-14,17C130.6,212.2,130.3,212.4,130,212.3z"/>
	<path class="st0_noodles-17" d="M249.8,208.8c-0.2,0-0.3-0.1-0.5-0.2c-0.3-0.3-0.3-0.7,0-1c0.2-0.2,16.6-18.4,39.1-18.8c0.4,0,0.7,0.3,0.7,0.7&#10;&#9;&#9;c0,0.4-0.3,0.7-0.7,0.7c0,0,0,0,0,0c-21.9,0.4-38,18.1-38.1,18.3C250.2,208.7,250,208.8,249.8,208.8z"/>
	<path class="st0_noodles-17" d="M324.1,234c-0.3,0-0.5-0.2-0.6-0.4c-0.1-0.4,0-0.8,0.4-0.9c16-6.8,42.3-6.9,42.6-6.9c0.4,0,0.7,0.3,0.7,0.7&#10;&#9;&#9;c0,0.4-0.3,0.7-0.7,0.7c-0.3,0-26.3,0.1-42,6.8C324.3,234,324.2,234,324.1,234z"/>
	<path class="st0_noodles-17" d="M311.2,224.8c-0.2,0-0.4-0.1-0.5-0.3c-0.3-0.3-0.2-0.7,0.1-1c0,0,0,0,0,0c12.3-10,32.9-15.1,33.1-15.1&#10;&#9;&#9;c0.4-0.1,0.8,0.1,0.8,0.5c0,0,0,0,0,0c0.1,0.4-0.1,0.8-0.5,0.9c-0.2,0-20.5,5.1-32.6,14.8C311.5,224.7,311.3,224.8,311.2,224.8z"/>
	<path class="st0_noodles-17" d="M295.4,214.6c-0.2,0-0.4-0.1-0.5-0.2c-0.3-0.3-0.2-0.7,0.1-1c7.7-6.5,17-10.9,26.9-12.8&#10;&#9;&#9;c0.4-0.1,0.7,0.2,0.8,0.6c0,0,0,0,0,0c0,0.4-0.2,0.7-0.6,0.8c-9.7,1.8-18.7,6.1-26.2,12.4C295.7,214.5,295.6,214.6,295.4,214.6z"/>
	<path class="st0_noodles-17" d="M282,208.2c-0.2,0-0.4-0.1-0.6-0.3c-0.2-0.3-0.2-0.7,0.1-1c0,0,0,0,0,0c8.9-6.3,23.1-12.4,23.2-12.4&#10;&#9;&#9;c0.4-0.1,0.8,0,0.9,0.4c0.2,0.4,0,0.8-0.4,0.9c0,0,0,0,0,0c-0.1,0.1-14.2,6.1-23,12.3C282.3,208.2,282.1,208.2,282,208.2z"/>
	<path class="st0_noodles-17" d="M267,204.8c-0.4,0-0.7-0.3-0.7-0.7c0-0.2,0.1-0.4,0.3-0.5c5.7-4.4,15.7-8,21.1-9.9c1.7-0.6,3.3-1.2,3.6-1.4&#10;&#9;&#9;c0.3-0.3,0.7-0.3,1,0c0,0,0,0,0,0c0.3,0.3,0.3,0.7,0,1c-0.3,0.3-1,0.6-4.1,1.7c-5.3,1.9-15.1,5.4-20.7,9.7&#10;&#9;&#9;C267.3,204.8,267.2,204.8,267,204.8z"/>
	<path class="st0_noodles-17" d="M136.7,221.6c-0.1,0-0.2,0-0.3-0.1c-0.4-0.1-0.5-0.6-0.4-0.9c0,0,0,0,0,0c0.1-0.3,12.4-28,51.5-36.1&#10;&#9;&#9;c39.2-8.2,72.2,9.4,72.6,10.4c0.1,0.4-0.1,0.8-0.4,0.9c-0.3,0.1-0.6,0-0.8-0.3c-2.1-1.8-33.7-17.5-71-9.7&#10;&#9;&#9;c-38.3,8-50.4,35-50.5,35.3C137.3,221.5,137,221.7,136.7,221.6z"/>
	<path class="st0_noodles-17" d="M146.9,222.2c-0.2,0-0.3-0.1-0.5-0.2c-0.3-0.2-0.3-0.7-0.1-1c0,0,0,0,0,0c0.2-0.2,21.6-25,51.5-27.1&#10;&#9;&#9;s54.3,10.7,54.5,10.9c0.3,0.2,0.5,0.6,0.3,0.9c0,0,0,0,0,0c-0.2,0.3-0.6,0.5-0.9,0.3c0,0,0,0,0,0c-0.2-0.1-24.4-12.8-53.8-10.7&#10;&#9;&#9;s-50.3,26.3-50.5,26.6C147.3,222.1,147.1,222.2,146.9,222.2z"/>
	<path class="st0_noodles-17" d="M164.6,221.9c-0.4,0-0.7-0.3-0.7-0.7c0-0.2,0.1-0.4,0.2-0.5c0.2-0.1,17.3-14.4,37.5-13.6&#10;&#9;&#9;c20.1,0.8,33.4,5.5,33.6,5.6c0.4,0.1,0.6,0.5,0.4,0.9c-0.1,0.4-0.5,0.6-0.9,0.4l0,0c-0.1-0.1-13.3-4.7-33.2-5.5&#10;&#9;&#9;s-36.4,13.1-36.6,13.2C164.9,221.9,164.7,221.9,164.6,221.9z"/>
	<path class="st1_noodles-17" d="M229.2,272.9l-11.6-0.6c-0.8,0-1.4,0.6-1.4,1.4c0,0.8,0.6,1.4,1.4,1.4l11.6,0.6c0.8,0,1.4-0.6,1.4-1.4&#10;&#9;&#9;C230.6,273.5,230,272.9,229.2,272.9z"/>
	<path class="st1_noodles-17" d="M234.7,185.9c-0.2-0.3-0.5-0.5-0.8-0.6c-0.4-0.1-0.8-0.1-1.1,0.1l-4.2,3.2c-0.3,0.2-0.5,0.5-0.6,0.8&#10;&#9;&#9;c-0.1,0.4,0,0.8,0.1,1.1c0.2,0.3,0.5,0.5,0.8,0.6c0.4,0.1,0.8,0.1,1.1-0.1l4.2-3.2c0.3-0.2,0.5-0.5,0.6-0.8&#10;&#9;&#9;C234.9,186.6,234.9,186.2,234.7,185.9z"/>
	<path class="st1_noodles-17" d="M207.4,263c-0.2-0.7-1-1.2-1.7-1c-0.3,0.1-0.7,0.2-1,0.2l-0.4,0.1h-0.3c-0.7,0.1-1.3,0.1-2,0.1&#10;&#9;&#9;c-0.3,0-0.6,0-0.9,0h-0.4h-0.3c-0.6-0.1-1.3-0.3-1.9-0.5c-0.7-0.2-1.5,0.2-1.7,1s0.2,1.5,1,1.7c2.8,0.8,5.8,0.9,8.6,0.2&#10;&#9;&#9;C207.2,264.6,207.6,263.8,207.4,263C207.5,263,207.4,263,207.4,263z"/>
	<path class="st1_noodles-17" d="M259.7,244.5c-0.6,0.1-1.2,0.1-1.8,0h-0.4h-0.1c-0.3-0.1-0.6-0.1-0.9-0.2c-0.3-0.1-0.6-0.2-0.9-0.3&#10;&#9;&#9;c0,0-0.4-0.2-0.1,0l-0.4-0.2c-0.3-0.1-0.5-0.3-0.8-0.4l-0.4-0.2c-0.1,0-0.4-0.3-0.2-0.1c-0.3-0.3-0.6-0.4-1-0.4&#10;&#9;&#9;c-0.8,0-1.4,0.6-1.4,1.4c0,0.4,0.1,0.7,0.4,1c2.2,1.8,5.1,2.7,7.9,2.4c0.8,0,1.4-0.6,1.4-1.4C261,245.2,260.5,244.4,259.7,244.5z"/>
	<path class="st1_noodles-17" d="M364.5,234.9c-0.4-0.7-1.2-0.9-1.9-0.5l-7,4.5c-0.7,0.4-0.9,1.2-0.5,1.9c0.4,0.7,1.2,0.9,1.9,0.5l7-4.5&#10;&#9;&#9;C364.7,236.4,364.9,235.5,364.5,234.9z"/>
	<path class="st1_noodles-17" d="M231.2,229.5c-0.2-0.7-1-1.2-1.7-1c0,0,0,0,0,0l-8.1,3.2c-0.7,0.2-1.2,1-1,1.7c0.2,0.7,1,1.2,1.7,1l8.1-3.2&#10;&#9;&#9;C230.9,231,231.3,230.2,231.2,229.5z"/>
	<path class="st1_noodles-17" d="M196.1,275.1l-15.2,1.1c-0.8,0-1.4,0.6-1.4,1.4c0,0.8,0.6,1.4,1.4,1.4l15.2-1c0.8,0,1.4-0.6,1.4-1.4&#10;&#9;&#9;C197.5,275.8,196.9,275.2,196.1,275.1C196.1,275.2,196.1,275.2,196.1,275.1z"/>
</g>
<g id="Eggs_noodles-17">
	<path class="st0_noodles-17" d="M280,230.9c-20.1,12.5-47.5,1.5-54.7-10.2s3.1-31.3,23.1-43.8s42.2-13.1,49.5-1.4S300,218.4,280,230.9z"/>
	<path class="st0_noodles-17" d="M259.7,237.1c-15,0-29.7-7.3-35.1-16c-7.5-12.1,3-32.1,23.4-44.8s43-13.1,50.5-1.1c3.8,6,4.3,17,1.4,28&#10;&#9;&#9;c-3.3,12.4-10.4,22.7-19.5,28.4C274.1,235.3,267,237.2,259.7,237.1z M279,167.9c-9,0-19.9,3.2-30.2,9.6&#10;&#9;&#9;c-19.7,12.2-29.9,31.4-22.9,42.7c6.8,11,33.5,22.5,53.7,9.9c8.8-5.5,15.7-15.5,18.9-27.5c2.8-10.6,2.3-21.1-1.2-26.8&#10;&#9;&#9;C293.9,170.6,287.2,167.9,279,167.9z"/>
	
		<ellipse transform="matrix(0.8494 -0.5277 0.5277 0.8494 -65.1915 167.8629)" class="st1_noodles-17" cx="261.6" cy="198.2" rx="42.8" ry="25"/>
	<path class="st0_noodles-17" d="M244.1,229.8c-8.7,0-15.9-2.9-19.5-8.7c-7.5-12,3-32.1,23.4-44.7s43-13.1,50.4-1.1c3.6,5.9,3.2,13.8-1.3,22.3&#10;&#9;&#9;s-12.2,16.3-22,22.4l0,0C264.6,226.5,253.5,229.8,244.1,229.8z M279,167.9c-9,0-20,3.2-30.3,9.7c-19.7,12.2-30,31.5-22.9,42.9&#10;&#9;&#9;s28.9,10.7,48.6-1.6l0,0c9.6-6,17.3-13.7,21.6-21.9s4.7-15.5,1.3-20.9S287.2,167.9,279,167.9z M274.7,219.4L274.7,219.4z"/>
	
		<ellipse transform="matrix(0.8494 -0.5277 0.5277 0.8494 -65.1915 167.8629)" class="st3_noodles-17" cx="261.6" cy="198.2" rx="25.8" ry="15.1"/>
	<path class="st0_noodles-17" d="M324.7,264.3c-21.2,10.5-47.4-3.1-53.5-15.4s6.1-30.9,27.3-41.3s43.3-8.9,49.4,3.5S345.9,253.8,324.7,264.3z"/>
	<path class="st0_noodles-17" d="M308.3,268.7c-16.5,0-32.8-9.5-37.7-19.6c-3.1-6.2-1.9-14.1,3.5-22.1s13.8-15.1,24.2-20.2s21.3-7.6,30.7-6.9&#10;&#9;&#9;c9.6,0.7,16.6,4.5,19.7,10.7c3.1,6.4,2.6,17.4-1.3,28c-4.5,12-12.6,21.6-22.2,26.3C319.8,267.5,314.1,268.8,308.3,268.7z&#10;&#9;&#9; M325.8,201.3c-8.5,0-17.9,2.4-27,6.9c-10.1,5-18.5,12-23.6,19.7s-6.2,14.9-3.4,20.6c5.7,11.6,31.2,25.6,52.5,15.1&#10;&#9;&#9;c9.3-4.6,17.1-13.9,21.4-25.5c3.8-10.2,4.4-20.7,1.4-26.8c-2.8-5.7-9.4-9.2-18.4-9.9C327.8,201.4,326.8,201.3,325.8,201.3z"/>
	
		<ellipse transform="matrix(0.8966 -0.4428 0.4428 0.8966 -69.7914 160.817)" class="st1_noodles-17" cx="309.5" cy="229.9" rx="42.8" ry="25"/>
	<path class="st0_noodles-17" d="M293.3,259.9c-10.6,0-19.2-3.6-22.7-10.7c-3.1-6.2-1.8-14,3.5-22s13.8-15.1,24.1-20.2s21.2-7.6,30.7-6.9&#10;&#9;&#9;s16.5,4.5,19.6,10.7s1.8,14-3.5,22s-13.8,15.1-24.1,20.2C311.4,257.6,301.7,259.9,293.3,259.9z M325.8,201.3&#10;&#9;&#9;c-8.5,0-17.9,2.4-27,6.9c-10.1,5-18.5,12-23.6,19.7s-6.2,14.9-3.4,20.7c5.9,12,27.7,13.4,48.5,3.2c10.1-5,18.5-12,23.6-19.7&#10;&#9;&#9;s6.2-15,3.4-20.7s-9.4-9.3-18.5-9.9C327.8,201.3,326.8,201.3,325.8,201.3L325.8,201.3z"/>
	
		<ellipse transform="matrix(0.8966 -0.4428 0.4428 0.8966 -69.7914 160.817)" class="st3_noodles-17" cx="309.5" cy="229.9" rx="25.8" ry="15.1"/>
</g>
<g id="Katsu_noodles-17">
	<path class="st1_noodles-17" d="M122.8,163c-6,0.2-10.3,5.6-13.7,10.6l-16.7,24.2c-4,5.8-8.1,11.8-10.2,18.5s-2,14.6,2,20.4&#10;&#9;&#9;c2.5,3.6,6.8,6.4,10.7,8.2c1.5,0.9,3.4,1.1,5.1,0.4l4.9-1.3c-1.6-0.7-2.9-2-3.4-3.7c2.7-4.2,4.8-8.8,6.2-13.6&#10;&#9;&#9;c5-17.1,13.9-32.8,25.9-46c3.2-3.5,11.3-9.5,6.6-14.2C137.3,163.6,126.7,162.9,122.8,163z"/>
	<path class="st0_noodles-17" d="M97.7,246.4h-0.5c-0.9-0.1-1.8-0.4-2.6-0.9c-2.8-1.3-8-4.1-10.9-8.5c-3.7-5.4-4.5-13.3-2.1-21&#10;&#9;&#9;c2.2-6.9,6.3-12.9,10.3-18.7l16.7-24.2c3.8-5.5,8.2-10.7,14.2-10.9l0,0c3.7-0.1,14.7,0.5,17.8,3.7c1,1,1.6,2.3,1.6,3.8&#10;&#9;&#9;c0,3.4-3.5,6.8-6.3,9.5c-0.7,0.7-1.4,1.4-1.9,1.9c-12,13.1-20.8,28.7-25.8,45.7c-1.4,4.8-3.5,9.3-6.1,13.5c0.5,1.4,1.6,2.5,2.9,3&#10;&#9;&#9;c0.3,0.1,0.4,0.4,0.4,0.7c0,0.3-0.2,0.5-0.5,0.6l-4.9,1.3C99.4,246.2,98.6,246.4,97.7,246.4z M122.9,163.7&#10;&#9;&#9;c-5.4,0.2-9.6,5.1-13.2,10.3L93,198.1c-3.9,5.7-8,11.6-10.1,18.4c-2.3,7.3-1.6,14.8,1.9,19.8c2,3,5.8,5.9,10.4,8&#10;&#9;&#9;c0.7,0.4,1.4,0.6,2.2,0.7c0.8,0,1.7-0.1,2.5-0.4l3.3-0.9c-1.1-0.8-1.9-2-2.3-3.3c-0.1-0.2,0-0.4,0.1-0.5c2.7-4.2,4.7-8.7,6.2-13.5&#10;&#9;&#9;c5.1-17.2,14-33,26.1-46.3c0.6-0.6,1.2-1.3,2-2c2.6-2.5,5.8-5.7,5.9-8.5c0-1.1-0.5-2.1-1.2-2.8&#10;&#9;&#9;C137.1,164.3,126.7,163.5,122.9,163.7L122.9,163.7z M122.9,163L122.9,163z"/>
	<path class="st3_noodles-17" d="M151.1,178c-0.4-23.2-26.9-8.5-35.2,1.4c-7.3,8.6-11,19.3-18.2,27.7c-6.4,7.8-8.6,18.2-5.7,27.9&#10;&#9;&#9;c1.1,3.7,3.3,7.4,6.8,8.9c5.4,2.3,11.4-1.3,16.2-4.8c15.6-11.5,31.7-25.3,35.3-44.3C151.3,189.3,151.2,183.6,151.1,178z"/>
	<path class="st0_noodles-17" d="M102.4,245.3c-1.3,0-2.7-0.3-3.9-0.8c-4.1-1.8-6.2-6-7.2-9.3c-3-9.9-0.8-20.6,5.8-28.5&#10;&#9;&#9;c3.6-4.2,6.4-9.1,9.1-13.8c2.6-4.9,5.7-9.5,9.1-13.9c6.2-7.3,21.2-16.4,29.7-13.4c4.3,1.5,6.5,5.7,6.7,12.4l0,0&#10;&#9;&#9;c0.1,5.6,0.2,11.3-0.9,17c-3.6,18.9-19.2,32.7-35.6,44.7C111.6,242.4,107,245.3,102.4,245.3z M141.2,166.3&#10;&#9;&#9;c-8.2,0-19.6,7.4-24.8,13.5c-3.4,4.3-6.4,8.9-9,13.7c-2.7,4.8-5.6,9.7-9.2,14c-6.3,7.6-8.4,17.8-5.5,27.3c0.9,3,2.8,6.9,6.4,8.5&#10;&#9;&#9;c5.1,2.2,11-1.4,15.5-4.7c16.1-11.9,31.5-25.4,35-43.9c1-5.5,0.9-11.2,0.9-16.7l0,0c-0.1-6.1-2.1-9.9-5.8-11.2&#10;&#9;&#9;C143.5,166.5,142.3,166.3,141.2,166.3L141.2,166.3z"/>
	<path class="st1_noodles-17" d="M139.3,168.6c-6.9,0.4-10.2,7.6-13.9,12.4c-4.6,5.9-8.2,12.4-10.8,19.3c-1.5,4.1-2.7,8.4-5.2,11.9&#10;&#9;&#9;c-7.1,10.4-17.8,18.8-8.2,32.2c2.6,3.6,7,6.4,11,8.2c0.8,0.4,1.6,0.7,2.4,0.8c0.9,0,1.9-0.1,2.8-0.4l4.9-1.4c-1.7-0.6-3-2-3.6-3.7&#10;&#9;&#9;c2.7-4.4,4.7-9.1,6.1-14c4.8-17.6,13.6-33.8,25.7-47.4c3.2-3.6,11.4-9.8,6.5-14.6C154.1,168.9,143.3,168.4,139.3,168.6z"/>
	<path class="st0_noodles-17" d="M115,254.1h-0.4c-0.9-0.1-1.8-0.4-2.7-0.8c-2.9-1.3-8.2-4.1-11.3-8.4c-8.2-11.5-2.1-19.3,4.3-27.7&#10;&#9;&#9;c1.3-1.7,2.7-3.5,3.9-5.3c1.8-2.9,3.2-5.9,4.1-9.2c0.3-0.9,0.6-1.8,1-2.6c2.6-7,6.3-13.6,10.9-19.5c0.8-1,1.5-2,2.3-3.2&#10;&#9;&#9;c3-4.3,6.3-9.2,12.2-9.5l0,0c3.8-0.2,15,0.3,18.3,3.4c1.1,1,1.7,2.3,1.7,3.8c0,3.5-3.5,7-6.2,9.8c-0.7,0.7-1.4,1.4-1.9,2&#10;&#9;&#9;c-12,13.5-20.8,29.6-25.6,47.1c-1.4,4.9-3.4,9.6-6,13.9c0.6,1.4,1.7,2.5,3.1,3c0.4,0.1,0.5,0.5,0.4,0.8c-0.1,0.2-0.2,0.4-0.4,0.4&#10;&#9;&#9;l-4.9,1.4C116.8,253.9,115.9,254.1,115,254.1z M139.4,168.6v0.7c-5.2,0.3-8.2,4.7-11.1,8.9c-0.8,1.1-1.5,2.2-2.3,3.2&#10;&#9;&#9;c-4.5,5.8-8.1,12.3-10.7,19.1c-0.3,0.9-0.6,1.7-0.9,2.6c-1,3.3-2.5,6.5-4.3,9.5c-1.3,1.9-2.7,3.7-4,5.4&#10;&#9;&#9;c-6.3,8.3-11.8,15.4-4.2,26.1c2.1,3,6,5.9,10.7,8c0.7,0.4,1.5,0.6,2.2,0.7c0.9,0,1.7-0.1,2.5-0.4l3.4-1c-1.1-0.8-2-2-2.4-3.3&#10;&#9;&#9;c-0.1-0.2,0-0.4,0.1-0.5c2.6-4.3,4.6-9,6-13.9c4.9-17.6,13.8-33.9,25.9-47.6c0.5-0.6,1.2-1.3,2-2.1c2.6-2.6,5.9-5.9,5.9-8.8&#10;&#9;&#9;c0-1.1-0.5-2.1-1.3-2.9c-2.7-2.7-13.3-3.3-17.2-3.1L139.4,168.6z"/>
	<path class="st3_noodles-17" d="M168.4,183.4c-0.9-26.5-36.1-3.4-41,9.3c-1.2,3.2-1.7,6.5-2.8,9.7c-2.6,7.3-8.3,12.6-13.2,18.4&#10;&#9;&#9;s-4.8,14.7-2.5,21.8c1.2,3.7,3.4,7.5,7.1,9c5.6,2.3,11.6-1.5,16.4-5.1c15.7-12,31.9-26.4,35.3-45.8&#10;&#9;&#9;C168.8,195,168.6,189.2,168.4,183.4z"/>
	<path class="st0_noodles-17" d="M119.7,252.9c-1.3,0-2.6-0.2-3.8-0.7c-4.2-1.7-6.4-6-7.4-9.4c-2.9-8.7-1.9-17.1,2.6-22.4c1-1.2,2-2.4,3.1-3.5&#10;&#9;&#9;c3.9-4.4,7.9-9,10-14.7c0.5-1.5,0.9-3.1,1.3-4.6c0.4-1.7,0.9-3.5,1.5-5.1c3.4-9,22-23.7,33.6-21.8c3.7,0.6,8.3,3.3,8.6,12.7l0,0&#10;&#9;&#9;c0.2,5.7,0.4,11.5-0.6,17.3c-3.4,19.4-19.1,33.7-35.6,46.2C129.1,249.9,124.4,252.9,119.7,252.9z M158.3,171.9&#10;&#9;&#9;c-10.9,0-27.2,13-30.2,21.1c-0.6,1.6-1.1,3.3-1.5,5c-0.4,1.6-0.8,3.2-1.3,4.7c-2.1,5.9-6.2,10.6-10.2,15.1c-1,1.2-2.1,2.3-3.1,3.5&#10;&#9;&#9;c-4.2,5-5.1,12.9-2.3,21.2c1,3.1,3,7,6.7,8.6c5.3,2.2,11.2-1.6,15.8-5c16.3-12.4,31.8-26.5,35.1-45.4c1-5.7,0.8-11.4,0.6-17.1l0,0&#10;&#9;&#9;c-0.2-6.8-2.8-10.6-7.5-11.4C159.6,171.9,159,171.9,158.3,171.9z"/>
	<path class="st1_noodles-17" d="M169.7,172.6c-6.6,0.3-11.1,6.4-14.8,11.8l-17.8,26.7c-4.3,6.4-8.6,13-10.8,20.4s-1.9,16,2.6,22.3&#10;&#9;&#9;c2.8,3.9,7.5,6.9,11.8,8.8c1.7,1,3.8,1.1,5.6,0.4l5.3-1.5c-1.8-0.7-3.2-2.2-3.8-4c2.8-4.7,5-9.7,6.5-15&#10;&#9;&#9;c5.2-18.8,14.6-36.1,27.5-50.7c3.4-3.9,12.2-10.5,6.9-15.7C185.5,173,174,172.4,169.7,172.6z"/>
	<path class="st0_noodles-17" d="M143.6,264.1h-0.4c-1-0.1-1.9-0.4-2.8-0.9c-3.1-1.4-8.8-4.4-12.1-9c-4.2-5.9-5.2-14.4-2.7-22.9&#10;&#9;&#9;c2.2-7.6,6.6-14.2,10.9-20.6l17.8-26.7c4.1-6.1,8.7-11.8,15.3-12.1v0.7V172c4-0.2,16.1,0.3,19.5,3.7c1.1,1,1.8,2.5,1.8,4&#10;&#9;&#9;c0,3.7-3.7,7.4-6.7,10.4c-0.8,0.8-1.5,1.5-2.1,2.1c-12.8,14.5-22.2,31.8-27.4,50.4c-1.5,5.2-3.6,10.2-6.4,14.9&#10;&#9;&#9;c0.6,1.5,1.8,2.7,3.3,3.3c0.3,0.1,0.4,0.4,0.4,0.6c0,0.3-0.2,0.5-0.5,0.6l-5.3,1.5C145.5,263.9,144.6,264.1,143.6,264.1z&#10;&#9;&#9; M171.5,173.2c-0.7,0-1.2,0-1.7,0c-6,0.3-10.4,5.7-14.2,11.5l-17.8,26.7c-4.2,6.3-8.6,12.9-10.7,20.2c-2.4,8.1-1.4,16.2,2.5,21.7&#10;&#9;&#9;c2.3,3.2,6.5,6.3,11.5,8.6c0.8,0.4,1.6,0.6,2.4,0.8c0.9,0,1.8-0.1,2.7-0.5l3.7-1c-1.3-0.9-2.2-2.1-2.7-3.6c-0.1-0.2,0-0.4,0.1-0.5&#10;&#9;&#9;c2.8-4.6,5-9.6,6.5-14.9c5.2-18.9,14.7-36.3,27.7-51c0.6-0.7,1.3-1.4,2.1-2.2c2.8-2.8,6.3-6.3,6.3-9.5c0-1.2-0.5-2.3-1.4-3.1&#10;&#9;&#9;C185.6,174.1,176.5,173.2,171.5,173.2z"/>
	<path class="st3_noodles-17" d="M200.8,188.5c-0.9-25.3-29.5-8.8-38.4,2.1c-7.8,9.6-11.7,21.3-19.4,30.6c-6.3,7.6-9.4,19.5-3.5,28.3&#10;&#9;&#9;c1,1.5,2.3,2.9,2.8,4.6c0.6,1.9,0.1,4.1,1.3,5.8c0.8,1,2,1.6,3.3,1.9c5.9,1.3,11.2-2.4,15.6-5.8c16.8-12.8,34.2-28.2,37.8-49&#10;&#9;&#9;C201.2,200.9,201.1,194.7,200.8,188.5z"/>
	<path class="st0_noodles-17" d="M149.2,262.6c-0.9,0-1.7-0.1-2.6-0.3c-1.4-0.2-2.7-1-3.6-2.1c-0.7-1.1-1.1-2.5-1.1-3.8c0-0.7-0.2-1.4-0.3-2.1&#10;&#9;&#9;c-0.4-1.2-1.1-2.3-1.9-3.2c-0.3-0.4-0.6-0.8-0.8-1.1c-6.4-9.4-2.6-21.7,3.6-29.1c3.9-4.6,6.8-10,9.7-15.3s5.8-10.6,9.7-15.4&#10;&#9;&#9;c6.6-8.1,22.8-18.3,32.1-15.1c4.7,1.6,7.2,6.1,7.5,13.4l0,0c0.2,6.1,0.4,12.4-0.6,18.5c-3.6,20.7-20.4,36-38,49.5&#10;&#9;&#9;C158.8,259.5,154.2,262.6,149.2,262.6z M190,175.8c-9,0-21.5,8.4-27.1,15.2c-3.8,4.7-6.8,10-9.6,15.2s-5.9,10.7-9.9,15.5&#10;&#9;&#9;c-6.1,7.3-9.2,19-3.5,27.5c0.2,0.4,0.5,0.7,0.8,1.1c0.9,1.1,1.6,2.3,2.1,3.6c0.2,0.8,0.3,1.6,0.4,2.4c0,1.1,0.3,2.2,0.8,3.2&#10;&#9;&#9;c0.7,0.9,1.8,1.4,2.9,1.6c5.5,1.2,10.6-2.3,15.1-5.6c17.4-13.3,34-28.3,37.5-48.6c1-6.1,0.8-12.3,0.6-18.3l0,0&#10;&#9;&#9;c-0.2-6.7-2.4-10.8-6.6-12.2C192.4,176,191.2,175.8,190,175.8z"/>
	<path class="st1_noodles-17" d="M192.9,184.4c-6.6,0.2-11.2,6.2-15,11.6c-6.1,8.8-12.1,17.6-18.2,26.4c-4.4,6.4-8.9,12.9-11.1,20.2&#10;&#9;&#9;s-2.2,15.9,2.2,22.3c2.7,3.9,7.4,7,11.6,9c0.8,0.4,1.7,0.7,2.6,0.9c1,0,2-0.1,2.9-0.4l5.3-1.4c-1.8-0.7-3.2-2.2-3.8-4.1&#10;&#9;&#9;c2.9-4.6,5.2-9.7,6.8-14.9c5.5-18.7,15.2-35.9,28.3-50.3c3.5-3.8,12.4-10.3,7.2-15.6C208.7,185.1,197.1,184.3,192.9,184.4z"/>
	<path class="st0_noodles-17" d="M165.4,275.5h-0.5c-1-0.1-1.9-0.5-2.8-0.9c-3.1-1.4-8.7-4.5-11.9-9.2c-4.1-5.9-4.9-14.5-2.3-22.9&#10;&#9;&#9;c2.4-7.6,6.9-14.1,11.2-20.4l18.2-26.4c4.2-6,8.9-11.6,15.5-11.9l0,0c4-0.1,16,0.6,19.4,4c1.1,1.1,1.8,2.5,1.8,4.1&#10;&#9;&#9;c0,3.7-3.8,7.4-6.9,10.3c-0.8,0.8-1.5,1.5-2.1,2.1c-13.1,14.3-22.7,31.4-28.2,50c-1.6,5.2-3.8,10.2-6.7,14.8&#10;&#9;&#9;c0.6,1.5,1.7,2.7,3.3,3.4c0.3,0.1,0.4,0.4,0.4,0.7c0,0.3-0.2,0.5-0.5,0.6l-5.3,1.4C167.2,275.4,166.3,275.5,165.4,275.5z&#10;&#9;&#9; M192.9,185.1c-6,0.2-10.5,5.6-14.4,11.3l-18.2,26.4c-4.3,6.2-8.8,12.7-11.1,20.1c-2.5,8-1.7,16.2,2.1,21.7&#10;&#9;&#9;c2.2,3.2,6.4,6.4,11.4,8.8c0.7,0.4,1.5,0.7,2.4,0.8c0.9,0,1.8-0.1,2.7-0.4l3.7-1c-1.2-0.9-2.2-2.2-2.6-3.6c-0.1-0.2,0-0.4,0.1-0.5&#10;&#9;&#9;c2.9-4.6,5.1-9.5,6.7-14.7c5.5-18.8,15.3-36.1,28.5-50.5c0.6-0.7,1.4-1.4,2.2-2.2c2.9-2.8,6.4-6.2,6.4-9.4c0-1.2-0.5-2.3-1.4-3.1&#10;&#9;&#9;C208.5,185.7,197.1,184.9,192.9,185.1L192.9,185.1z M192.9,184.4L192.9,184.4z"/>
	<path class="st3_noodles-17" d="M223.8,200.8c-0.5-25.4-29.4-9.3-38.5,1.5c-8,9.4-12,21.1-19.9,30.3c-7,8.5-9.4,19.9-6.2,30.5&#10;&#9;&#9;c1.2,4,3.6,8,7.4,9.7c5.9,2.5,12.5-1.4,17.6-5.2c17-12.5,34.6-27.6,38.6-48.4C224,213.2,223.9,207,223.8,200.8z"/>
	<path class="st0_noodles-17" d="M170.6,274.3c-1.5,0-2.9-0.3-4.2-0.9c-4.4-1.9-6.7-6.5-7.8-10.1c-3.3-10.8-0.9-22.5,6.3-31.1&#10;&#9;&#9;c3.9-4.6,7-9.9,10-15.1s6-10.5,10-15.2c6.7-8,23.1-17.9,32.4-14.6c4.7,1.7,7.1,6.2,7.2,13.5c0.1,6.1,0.2,12.4-0.9,18.5&#10;&#9;&#9;c-3.9,20.7-21,35.7-38.8,48.8C180.6,271.2,175.5,274.3,170.6,274.3z M212.9,188c-8.9,0-21.5,8.1-27.1,14.8c-3.9,4.6-6.9,9.9-9.8,15&#10;&#9;&#9;s-6.1,10.6-10.1,15.3c-6.9,8.3-9.2,19.5-6.1,29.9c1,3.3,3.1,7.6,7.1,9.3c5.6,2.4,12-1.5,17-5.1c17.6-13,34.5-27.8,38.3-48&#10;&#9;&#9;c1.1-6,1-12.2,0.9-18.3l0,0c-0.1-6.7-2.3-10.8-6.4-12.3C215.5,188.2,214.2,188,212.9,188z"/>
</g>
<g id="Mushroom_noodles-17">
	<path class="st1_noodles-17" d="M270.7,264.7c0,0-4.2-7.8-11.8-6.5s-9.9,7.1-5.9,7.4c3.9,0.4,5.2,0,5.2,0s-11.4,3.9-9.8,5.9s3.1,8.9,7.5,6.7&#10;&#9;&#9;c4.5-2.2,7.4-9,8-7.1s2.9,4.2,5.3,2.4S274.6,271.2,270.7,264.7z"/>
	<path class="st0_noodles-17" d="M254.2,279.1c-0.3,0-0.7-0.1-1-0.2c-1.9-0.6-3-2.9-4-4.9c-0.3-0.8-0.8-1.5-1.2-2.2c-0.3-0.3-0.3-0.7-0.2-1.1&#10;&#9;&#9;c0.4-1.5,4.4-3.4,7.3-4.5c-0.6,0-1.3-0.1-2.2-0.1c-1.2,0-2.2-0.9-2.3-2.1c-0.1-2.3,3-5.4,8.2-6.3c7.7-1.3,12.1,6.4,12.3,6.8&#10;&#9;&#9;c3.3,5.5,1.9,7-0.6,8.7c-0.3,0.2-0.7,0.5-1,0.7c-0.8,0.7-2,1-3.1,0.6c-1.4-0.5-2.5-1.7-3-3.1c-0.5,0.5-1,1.1-1.4,1.7&#10;&#9;&#9;c-1.4,1.8-3.4,4.4-5.9,5.6C255.5,279,254.8,279.1,254.2,279.1z M258.1,265.1c0.2,0,0.4,0.1,0.5,0.3c0.1,0.2-0.1,0.5-0.3,0.6&#10;&#9;&#9;c-3.8,1.3-9.2,3.6-9.6,4.9c0,0.1,0,0.2,0,0.2c0.5,0.8,1,1.6,1.4,2.4c0.9,1.8,1.9,3.9,3.4,4.4c0.7,0.2,1.5,0.1,2.2-0.3&#10;&#9;&#9;c2.3-1.1,4.2-3.6,5.6-5.3c1.2-1.5,1.8-2.3,2.4-2.1c0.3,0.1,0.6,0.3,0.6,0.6c0.4,1.2,1.2,2.1,2.4,2.6c0.8,0.2,1.6,0.1,2.2-0.5&#10;&#9;&#9;c0.4-0.3,0.7-0.5,1.1-0.8c2-1.3,3.4-2.2,0.3-7.4l0,0c0-0.1-4.1-7.5-11.3-6.3c-5,0.8-7.5,3.6-7.4,5.3c0,0.9,0.8,1.1,1.5,1.2&#10;&#9;&#9;c1.7,0.2,3.3,0.2,5,0C258,265.1,258,265.1,258.1,265.1z"/>
	<path class="st1_noodles-17" d="M236,172c0,0-3.6-6.7-10.2-5.6s-8.5,6.1-5.1,6.4c1.5,0.2,3,0.2,4.5,0c0,0-9.9,3.3-8.4,5.1s2.6,7.7,6.5,5.8&#10;&#9;&#9;s6.4-7.7,6.9-6.1s2.5,3.6,4.6,2S239.4,177.6,236,172z"/>
	<path class="st0_noodles-17" d="M221.8,184.5c-0.3,0-0.6,0-0.9-0.1c-1.6-0.6-2.6-2.5-3.4-4.2c-0.3-0.7-0.7-1.3-1.1-1.9&#10;&#9;&#9;c-0.2-0.3-0.3-0.6-0.2-0.9c0.4-1.3,3.8-2.9,6.3-3.9c-0.5,0-1.1-0.1-1.9-0.1c-1.1,0-1.9-0.8-2-1.8c-0.1-2,2.6-4.6,7.1-5.4&#10;&#9;&#9;c6.6-1.1,10.4,5.5,10.6,5.8c2.9,4.8,1.6,6-0.5,7.5c-0.3,0.2-0.6,0.4-0.9,0.6c-0.7,0.6-1.7,0.8-2.6,0.5c-1.2-0.5-2.1-1.5-2.5-2.7&#10;&#9;&#9;c-0.4,0.5-0.8,0.9-1.2,1.4c-1.2,1.6-2.9,3.8-5.1,4.8C222.9,184.3,222.4,184.5,221.8,184.5z M225.2,172.5c0.2,0,0.4,0.2,0.4,0.4&#10;&#9;&#9;c0,0.2-0.1,0.3-0.3,0.4c-3.2,1.1-7.9,3.1-8.3,4.2c0,0.1,0,0.1,0,0.2c0.5,0.7,0.9,1.3,1.2,2.1c0.8,1.6,1.6,3.4,2.9,3.8&#10;&#9;&#9;c0.6,0.2,1.3,0.1,1.9-0.2c2-1,3.6-3.1,4.8-4.6c1-1.3,1.5-1.9,2.1-1.8c0.3,0.1,0.5,0.3,0.5,0.6c0.3,1,1,1.8,2,2.2&#10;&#9;&#9;c0.7,0.2,1.4,0,1.9-0.4c0.3-0.2,0.6-0.5,1-0.7c1.7-1.1,2.9-1.9,0.3-6.4l0,0c0-0.1-3.6-6.4-9.7-5.4c-4.3,0.7-6.5,3.1-6.4,4.6&#10;&#9;&#9;c0,0.8,0.7,1,1.3,1c1.4,0.2,2.9,0.2,4.3,0L225.2,172.5z"/>
	<path class="st1_noodles-17" d="M232.4,262.2c0,0-8.7-1.8-9.6-9.4s3.9-11.5,5.4-7.9s1.5,5,1.5,5s0.4-12.1,2.9-11.1s9.4,0.4,8.6,5.3&#10;&#9;&#9;s-6.5,9.7-4.5,9.7s4.9,1.6,3.8,4.4S239.8,264,232.4,262.2z"/>
	<path class="st0_noodles-17" d="M236.2,263.2c-1.3,0-2.6-0.2-3.9-0.6c-0.4-0.1-9.1-2.1-10-9.9c-0.6-5.2,1.4-9.1,3.6-9.7&#10;&#9;&#9;c1.2-0.3,2.4,0.4,2.7,1.6c0.3,0.8,0.6,1.5,0.8,2c0.3-3.1,0.9-7.4,2.2-8.3c0.3-0.2,0.7-0.3,1.1-0.1c0.8,0.3,1.7,0.4,2.5,0.6&#10;&#9;&#9;c2.2,0.4,4.7,0.8,5.9,2.4c0.6,0.9,0.8,1.9,0.5,2.9c-0.5,2.8-2.3,5.4-3.7,7.3c-0.4,0.6-0.8,1.2-1.2,1.8c1.5,0,2.9,0.7,3.8,1.9&#10;&#9;&#9;c0.6,0.9,0.7,2.1,0.3,3.1c-0.1,0.4-0.3,0.8-0.4,1.2C239.8,261.7,239.1,263.2,236.2,263.2z M226.5,244c-0.1,0-0.2,0-0.3,0&#10;&#9;&#9;c-1.6,0.4-3.6,3.7-2.9,8.7c0.9,7.2,9.2,9,9.3,9l0,0c5.8,1.5,6.3-0.1,7-2.4c0.1-0.4,0.3-0.9,0.4-1.3c0.3-0.7,0.3-1.6-0.2-2.2&#10;&#9;&#9;c-0.8-1-1.9-1.5-3.2-1.5c-0.3,0-0.6-0.1-0.8-0.4c-0.3-0.6,0.2-1.4,1.4-2.9c1.3-1.8,3.1-4.4,3.5-6.9c0.2-0.7,0-1.5-0.4-2.2&#10;&#9;&#9;c-0.9-1.3-3.2-1.7-5.2-2c-0.9-0.1-1.8-0.3-2.7-0.6c-0.1,0-0.2,0-0.2,0c-1.1,0.7-1.8,6.6-2,10.6c0,0.3-0.2,0.5-0.5,0.5l0,0&#10;&#9;&#9;c-0.3,0-0.5-0.2-0.5-0.5l0,0c-0.2-1.7-0.7-3.3-1.5-4.8C227.6,244.4,227.1,244.1,226.5,244z"/>
</g>
<g id="Sticks_noodles-17">
	<path class="st0_noodles-17" d="M182,121.2c0,0,206.8,122.8,214.5,127.3c11.4,6.8,24.7,0.4,19.6-7.5c-6-9.2-234-123.1-234-123.1L182,121.2z"/>
	<path class="st0_noodles-17" d="M406.6,252.2c-3.7,0-7.3-1.1-10.5-3c-7.6-4.5-212.4-126.1-214.4-127.3c-0.2-0.1-0.4-0.4-0.4-0.7v-3.3&#10;&#9;&#9;c0-0.3,0.1-0.5,0.4-0.6c0.2-0.1,0.5-0.1,0.7,0c9.3,4.7,228.3,114.1,234.3,123.4c1.9,2.9,1.6,5.8-0.6,8.1&#10;&#9;&#9;C414.1,250.9,410.6,252.2,406.6,252.2z M182.8,120.8c9.9,5.9,206.6,122.7,214.1,127.1c7.1,4.2,14.9,3.2,18.2-0.1&#10;&#9;&#9;c1.7-1.8,1.9-4,0.4-6.3c-4.6-7.1-153.5-82.8-232.6-122.3L182.8,120.8z"/>
	<path class="st1_noodles-17" d="M182,117.9c0,0,209.7,121.9,217.6,126.1s20.9,2.6,15.8-5.3c-6-9.2-227.6-123.5-227.6-123.5L182,117.9z"/>
	<path class="st0_noodles-17" d="M408.9,247.1c-3.4,0-6.7-0.8-9.6-2.4c-7.8-4.2-215.5-124.9-217.6-126.2c-0.2-0.1-0.4-0.4-0.4-0.6&#10;&#9;&#9;c0-0.3,0.2-0.5,0.4-0.6l5.8-2.6c0.2-0.1,0.4-0.1,0.6,0c9.1,4.7,221.8,114.4,227.8,123.8c2.2,3.3,1.1,5.4,0.2,6.3&#10;&#9;&#9;C414.8,246.3,412,247.1,408.9,247.1z M183.5,118c16.9,9.8,208.9,121.5,216.4,125.4c5.2,2.8,12.9,2.9,15.2,0.4&#10;&#9;&#9;c1-1.1,0.9-2.7-0.4-4.6c-4.7-7.2-150.4-83.6-227-123.1L183.5,118z"/>
	<path class="st0_noodles-17" d="M194.1,115.2c0,0,212.5,112.4,220.4,116.6c11.8,6.3,24.7-0.8,19.2-8.4C427.2,214.5,193.9,112,193.9,112&#10;&#9;&#9;L194.1,115.2z"/>
	<path class="st0_noodles-17" d="M423.9,235c-3.4,0-6.7-0.9-9.7-2.5c-7.8-4.1-218.3-115.5-220.4-116.6c-0.2-0.1-0.4-0.4-0.4-0.6l-0.2-3.3&#10;&#9;&#9;c0-0.3,0.1-0.5,0.3-0.7c0.2-0.1,0.5-0.2,0.7-0.1c9.5,4.2,233.6,102.7,240.1,111.7c2,2.8,1.9,5.8-0.2,8.2S428.3,235,423.9,235z&#10;&#9;&#9; M194.9,114.8c10.1,5.4,212.4,112.4,220,116.5c7.3,3.9,15.1,2.5,18.1-1c1.6-1.9,1.7-4.1,0.1-6.3c-5-6.9-157.4-75.2-238.4-110.7&#10;&#9;&#9;L194.9,114.8z"/>
	<path class="st1_noodles-17" d="M193.9,112c0,0,215.4,111.4,223.5,115.3s21,1.6,15.5-6c-6.5-8.9-233.4-112.2-233.4-112.2L193.9,112z"/>
	<path class="st0_noodles-17" d="M425.9,229.8c-3,0-6-0.7-8.8-1.9c-8-3.8-221.4-114.2-223.5-115.3c-0.2-0.1-0.4-0.4-0.4-0.6&#10;&#9;&#9;c0-0.3,0.1-0.5,0.4-0.6l5.6-2.9c0.2-0.1,0.4-0.1,0.6,0c9.3,4.2,227.2,103.4,233.7,112.4c2.3,3.2,1.3,5.3,0.5,6.3&#10;&#9;&#9;C432.6,228.9,429.5,229.8,425.9,229.8z M195.5,112c17.4,9,214.6,111,222.3,114.6c5.3,2.5,13,2.3,15.2-0.4c1-1.2,0.8-2.7-0.6-4.6&#10;&#9;&#9;c-5-7-154.3-76.1-232.8-111.8L195.5,112z"/>
</g>
</svg>