<svg id="_0409_fast_food" xmlns="http://www.w3.org/2000/svg" xmlns:xlink="http://www.w3.org/1999/xlink" viewBox="0 0 500 500" data-imageid="fast-food-19" imageName="Fast Food" class="illustrations_image" style="width: 151px;"><defs><style>.cls-1_fast-food-19{fill:url(#linear-gradient);}.cls-1_fast-food-19,.cls-2_fast-food-19,.cls-3_fast-food-19,.cls-4_fast-food-19,.cls-5_fast-food-19,.cls-6_fast-food-19,.cls-7_fast-food-19,.cls-8_fast-food-19,.cls-9_fast-food-19,.cls-10_fast-food-19,.cls-11_fast-food-19,.cls-12_fast-food-19,.cls-13_fast-food-19,.cls-14_fast-food-19,.cls-15_fast-food-19,.cls-16_fast-food-19,.cls-17_fast-food-19,.cls-18_fast-food-19,.cls-19_fast-food-19,.cls-20_fast-food-19,.cls-21_fast-food-19,.cls-22_fast-food-19,.cls-23_fast-food-19,.cls-24_fast-food-19,.cls-25_fast-food-19,.cls-26_fast-food-19,.cls-27_fast-food-19,.cls-28_fast-food-19,.cls-29_fast-food-19,.cls-30_fast-food-19,.cls-31_fast-food-19,.cls-32_fast-food-19,.cls-33_fast-food-19,.cls-34_fast-food-19,.cls-35_fast-food-19,.cls-36_fast-food-19,.cls-37_fast-food-19{stroke-width:0px;}.cls-2_fast-food-19{isolation:isolate;opacity:.18;}.cls-2_fast-food-19,.cls-37_fast-food-19{fill:#68e1fd;}.cls-3_fast-food-19{fill:url(#linear-gradient-33-fast-food-19);}.cls-4_fast-food-19{fill:url(#linear-gradient-29-fast-food-19);}.cls-5_fast-food-19{fill:url(#linear-gradient-32-fast-food-19);}.cls-6_fast-food-19{fill:url(#linear-gradient-30-fast-food-19);}.cls-7_fast-food-19{fill:url(#linear-gradient-31-fast-food-19);}.cls-8_fast-food-19{fill:url(#linear-gradient-34-fast-food-19);}.cls-9_fast-food-19{fill:url(#linear-gradient-28-fast-food-19);}.cls-10_fast-food-19{fill:url(#linear-gradient-25-fast-food-19);}.cls-11_fast-food-19{fill:url(#linear-gradient-11-fast-food-19);}.cls-12_fast-food-19{fill:url(#linear-gradient-12-fast-food-19);}.cls-13_fast-food-19{fill:url(#linear-gradient-13-fast-food-19);}.cls-14_fast-food-19{fill:url(#linear-gradient-10-fast-food-19);}.cls-15_fast-food-19{fill:url(#linear-gradient-17-fast-food-19);}.cls-16_fast-food-19{fill:url(#linear-gradient-16-fast-food-19);}.cls-17_fast-food-19{fill:url(#linear-gradient-19-fast-food-19);}.cls-18_fast-food-19{fill:url(#linear-gradient-15-fast-food-19);}.cls-19_fast-food-19{fill:url(#linear-gradient-23-fast-food-19);}.cls-20_fast-food-19{fill:url(#linear-gradient-21-fast-food-19);}.cls-21_fast-food-19{fill:url(#linear-gradient-18-fast-food-19);}.cls-22_fast-food-19{fill:url(#linear-gradient-14-fast-food-19);}.cls-23_fast-food-19{fill:url(#linear-gradient-22-fast-food-19);}.cls-24_fast-food-19{fill:url(#linear-gradient-20-fast-food-19);}.cls-25_fast-food-19{fill:url(#linear-gradient-27-fast-food-19);}.cls-26_fast-food-19{fill:url(#linear-gradient-24-fast-food-19);}.cls-27_fast-food-19{fill:url(#linear-gradient-26-fast-food-19);}.cls-28_fast-food-19{fill:url(#linear-gradient-4-fast-food-19);}.cls-29_fast-food-19{fill:url(#linear-gradient-2-fast-food-19);}.cls-30_fast-food-19{fill:url(#linear-gradient-3-fast-food-19);}.cls-31_fast-food-19{fill:url(#linear-gradient-8-fast-food-19);}.cls-32_fast-food-19{fill:url(#linear-gradient-9-fast-food-19);}.cls-33_fast-food-19{fill:url(#linear-gradient-7-fast-food-19);}.cls-34_fast-food-19{fill:url(#linear-gradient-5-fast-food-19);}.cls-35_fast-food-19{fill:url(#linear-gradient-6-fast-food-19);}.cls-36_fast-food-19{fill:#fff;}</style><linearGradient id="linear-gradient-fast-food-19" x1="252.41" y1="190.43" x2="225.05" y2="320.74" gradientUnits="userSpaceOnUse"><stop offset="0" stop-color="#231f20" stop-opacity="0"/><stop offset="1" stop-color="#231f20"/></linearGradient><linearGradient id="linear-gradient-2-fast-food-19" x1="663.99" y1="2109.85" x2="780.71" y2="2109.85" gradientTransform="translate(-480.35 2317.48) scale(1 -1)" xlink:href="#linear-gradient-fast-food-19"/><linearGradient id="linear-gradient-3-fast-food-19" x1="664.41" y1="2123.04" x2="811.99" y2="2123.04" gradientTransform="translate(-480.35 2317.48) scale(1 -1)" xlink:href="#linear-gradient-fast-food-19"/><linearGradient id="linear-gradient-4-fast-food-19" x1="741.22" y1="2143.45" x2="730.39" y2="2079.43" gradientTransform="translate(-480.35 2317.48) scale(1 -1)" gradientUnits="userSpaceOnUse"><stop offset="0" stop-color="#fff"/><stop offset=".13" stop-color="#fff" stop-opacity=".69"/><stop offset="1" stop-color="#fff" stop-opacity="0"/></linearGradient><linearGradient id="linear-gradient-5-fast-food-19" x1="744.85" y1="2135.22" x2="794.99" y2="2135.22" gradientTransform="translate(-471 2323.65) scale(1 -1)" xlink:href="#linear-gradient-fast-food-19"/><linearGradient id="linear-gradient-6-fast-food-19" x1="744.85" y1="2139.65" x2="794.99" y2="2139.65" gradientTransform="translate(-471 2323.65) scale(1 -1)" xlink:href="#linear-gradient-fast-food-19"/><linearGradient id="linear-gradient-7-fast-food-19" x1="701.26" y1="2132.58" x2="751.06" y2="2132.58" gradientTransform="translate(-1963.31 -256.69) rotate(82.5) scale(1 -1)" xlink:href="#linear-gradient-fast-food-19"/><linearGradient id="linear-gradient-8-fast-food-19" x1="732.85" y1="2099.87" x2="746.4" y2="2181.49" xlink:href="#linear-gradient-4-fast-food-19"/><linearGradient id="linear-gradient-9-fast-food-19" x1="89.67" y1="136.75" x2="868.31" y2="123.72" xlink:href="#linear-gradient-fast-food-19"/><linearGradient id="linear-gradient-10-fast-food-19" x1="241.48" y1="235.53" x2="262.98" y2="86.96" gradientUnits="userSpaceOnUse"><stop offset="0" stop-color="#000"/><stop offset=".13" stop-color="#000" stop-opacity=".69"/><stop offset="1" stop-color="#000" stop-opacity="0"/></linearGradient><linearGradient id="linear-gradient-11-fast-food-19" x1="714.79" y1="2217.98" x2="721.12" y2="2217.98" xlink:href="#linear-gradient-4-fast-food-19"/><linearGradient id="linear-gradient-12-fast-food-19" x1="698.5" y1="2210.4" x2="711.29" y2="2210.4" xlink:href="#linear-gradient-4-fast-food-19"/><linearGradient id="linear-gradient-13-fast-food-19" x1="714.64" y1="2205.72" x2="727.19" y2="2205.72" xlink:href="#linear-gradient-4-fast-food-19"/><linearGradient id="linear-gradient-14-fast-food-19" x1="733.16" y1="2213.44" x2="742.18" y2="2213.44" xlink:href="#linear-gradient-4-fast-food-19"/><linearGradient id="linear-gradient-15-fast-food-19" x1="748.24" y1="2211.37" x2="751.7" y2="2211.37" xlink:href="#linear-gradient-4-fast-food-19"/><linearGradient id="linear-gradient-16-fast-food-19" x1="759.3" y1="2204.21" x2="765.41" y2="2204.21" xlink:href="#linear-gradient-4-fast-food-19"/><linearGradient id="linear-gradient-17-fast-food-19" x1="730.69" y1="2220.98" x2="735.56" y2="2220.98" xlink:href="#linear-gradient-4-fast-food-19"/><linearGradient id="linear-gradient-18-fast-food-19" x1="765.17" y1="2213.92" x2="773.34" y2="2213.92" xlink:href="#linear-gradient-4-fast-food-19"/><linearGradient id="linear-gradient-19-fast-food-19" x1="760.69" y1="2193.77" x2="771.53" y2="2193.77" xlink:href="#linear-gradient-4-fast-food-19"/><linearGradient id="linear-gradient-20-fast-food-19" x1="737.99" y1="2199.72" x2="748.77" y2="2199.72" xlink:href="#linear-gradient-4-fast-food-19"/><linearGradient id="linear-gradient-21-fast-food-19" x1="666.14" y1="2123.64" x2="712.23" y2="2123.64" xlink:href="#linear-gradient-4-fast-food-19"/><linearGradient id="linear-gradient-22-fast-food-19" x1="865.4" y1="2028.89" x2="895.89" y2="2122.37" gradientTransform="translate(-480.35 2317.48) scale(1 -1)" xlink:href="#linear-gradient-fast-food-19"/><linearGradient id="linear-gradient-23-fast-food-19" x1="421.59" y1="168.65" x2="394.22" y2="406.48" xlink:href="#linear-gradient-fast-food-19"/><linearGradient id="linear-gradient-24-fast-food-19" x1="389.07" y1="185.83" x2="365.61" y2="267.93" xlink:href="#linear-gradient-fast-food-19"/><linearGradient id="linear-gradient-25-fast-food-19" x1="487.26" y1="302.92" x2="153.65" y2="244.93" xlink:href="#linear-gradient-fast-food-19"/><linearGradient id="linear-gradient-26-fast-food-19" x1="892.91" y1="2080.1" x2="924.61" y2="2080.1" gradientTransform="translate(-480.35 2317.48) scale(1 -1)" xlink:href="#linear-gradient-fast-food-19"/><linearGradient id="linear-gradient-27-fast-food-19" x1="861.28" y1="2075.52" x2="901.29" y2="2075.52" gradientTransform="translate(-480.35 2317.48) scale(1 -1)" xlink:href="#linear-gradient-fast-food-19"/><linearGradient id="linear-gradient-28-fast-food-19" x1="804.54" y1="2083.33" x2="862.8" y2="2123.53" gradientTransform="translate(-480.35 2317.48) scale(1 -1)" xlink:href="#linear-gradient-fast-food-19"/><linearGradient id="linear-gradient-29-fast-food-19" x1="855.52" y1="2090.42" x2="889.52" y2="2090.42" gradientTransform="translate(-480.35 2317.48) scale(1 -1)" xlink:href="#linear-gradient-fast-food-19"/><linearGradient id="linear-gradient-30-fast-food-19" x1="109.01" y1="319.95" x2="270.6" y2="365.56" xlink:href="#linear-gradient-fast-food-19"/><linearGradient id="linear-gradient-31-fast-food-19" x1="229.03" y1="325.08" x2="-539.18" y2="471.69" xlink:href="#linear-gradient-fast-food-19"/><linearGradient id="linear-gradient-32-fast-food-19" x1="541.34" y1="2041.52" x2="656.01" y2="2041.52" xlink:href="#linear-gradient-4-fast-food-19"/><linearGradient id="linear-gradient-33-fast-food-19" x1="582.09" y1="2062.01" x2="632.66" y2="2025.42" xlink:href="#linear-gradient-4-fast-food-19"/><linearGradient id="linear-gradient-34-fast-food-19" x1="561.75" y1="2102.94" x2="610.58" y2="2102.94" gradientTransform="translate(-480.35 2317.48) scale(1 -1)" xlink:href="#linear-gradient-fast-food-19"/></defs><g id="background_fast-food-19"><path class="cls-2_fast-food-19 targetColor" d="M480.12,284.34c-7.82,17.89-21.32,32.82-34.54,47.31l-43.84,48.05c-11.07,12.14-22.3,24.41-36.06,33.4-22.66,14.82-50.48,19.59-77.54,20.44-27.06.85-54.15-1.9-81.15-.56-13.45.66-22.63,7.33-35.85,7.61-17.68.27-35.27-2.55-51.99-8.32-1.04-.36-2.07-.75-3.11-1.15-16.48-6.43-31.21-16.97-44.2-29.03l-.62-.57c-19.58-18.05-35.17-39.99-45.78-64.42-14.82-34.89-17.42-73.77-7.37-110.32,8.22-29.91,17.13-59.43,25.08-89.33C60.92,68.93,130.86,27.78,199.39,45.53c1.42.37,2.83.76,4.24,1.18,23.56,6.95,44.62,20.49,67.66,28.99,29.77,10.97,61.99,13.21,93.72,13.95,22.28.53,46.02.8,64.67,13.09,9.48,6.34,16.84,15.22,24.09,24.03,10.3,12.59,20.77,25.5,26.34,40.78,4.37,12.02,5.5,24.95,6.58,37.71,2.16,25.36,4.17,51.71-4.97,75.45-.58,1.26-1.08,2.45-1.6,3.64Z" style="fill: rgb(104, 225, 253);"/><circle class="cls-37_fast-food-19 targetColor" cx="353.76" cy="274.53" r="1.8" style="fill: rgb(104, 225, 253);"/></g><g id="burger_fast-food-19"><path class="cls-2_fast-food-19 targetColor" d="M177.61,120.8c-10.45,3.51-20.09,11.41-22.53,22.22-4.49-.06-8.81,1.71-11.97,4.89-1.04.89-1.68,2.16-1.79,3.53,0,1.13.66,2.22.44,3.32-.37,1.1-1.16,2.01-2.19,2.54l-6.21,4.2c-2.64,1.79-5.57,4.12-5.5,7.32.09,4.39,5.43,6.34,8.72,9.21,5.88,5.15,5.48,14.27,8.41,21.56,3.39,8.34,11.31,14.1,19.71,17.35,8.39,3.25,17.44,4.43,26.22,6.34,12.03,2.65,23.84,6.8,36.14,7.53,12.3.74,25.72-2.65,33.32-12.35,6.49-8.27,7.61-19.48,7.75-29.99.25-18.36-2.35-38.27-15.09-51.48-4.61-4.57-9.95-8.32-15.81-11.11-17-8.6-41.43-11.16-59.61-5.06Z" style="fill: rgb(104, 225, 253);"/><path class="cls-37_fast-food-19 targetColor" d="M290.02,230.65l-85.89-10.88c-12.86-1.64-21.96-13.39-20.33-26.25l.21-1.64c.6-4.7,4.89-8.03,9.6-7.44h0s115.43,14.62,115.43,14.62c4.7.6,8.03,4.89,7.44,9.6h0s-.21,1.64-.21,1.64c-1.63,12.87-13.38,21.98-26.25,20.35h.01Z" style="fill: rgb(104, 225, 253);"/><path class="cls-1_fast-food-19" d="M316.47,208.69l-.2,1.64c-1.67,12.84-13.4,21.91-26.25,20.29l-85.9-10.89c-12.84-1.65-21.92-13.39-20.29-26.24l.2-1.64c.59-4.7,4.88-8.03,9.57-7.44.01,0,.02,0,.04,0l24.35,3.08,91.08,11.53c4.71.63,8.02,4.95,7.39,9.66Z"/><path class="cls-29_fast-food-19" d="M300.34,225.59c-.09,1.84-.95,3.55-2.37,4.72-2.61.57-5.3.69-7.95.36l-85.9-10.89c-12.84-1.65-21.92-13.39-20.29-26.24l.2-1.64c.59-4.7,4.88-8.03,9.57-7.44.01,0,.02,0,.04,0l24.35,3.08c4.84,2.54,9.89,7.61,3.54,11.27-3.23,1.84-7.46.24-8.2,5-.55,3.56,2.31,7.02,5.22,8.64,3.21,1.78,6.99,2.14,10.65,2.43,13.95,1.14,28.02,1.72,41.74,4.51,8.74,1.76,17.49,4.44,26.36,3.69.79-.16,1.61-.04,2.32.34.55.57.81,1.37.71,2.16Z"/><path class="cls-37_fast-food-19 targetColor" d="M190.1,176.22c-.79-.83-2.09-.91-2.98-.19-.83.74-1.45,1.68-1.81,2.73-.89,2.03-1.78,4.36-.86,6.34.85,1.41,2.11,2.53,3.61,3.2l6.89,3.91c.63.43,1.37.69,2.13.74.84,0,1.59-.58,2.42-.68s1.88.66,1.48,1.41c.7-.74,1.98-.37,2.73.33.64.79,1.36,1.52,2.14,2.17,2.22,1.36,5.59-.56,7.48,1.27.49.47.81,1.15,1.43,1.41s1.67-.18,2.54-.44c3.06-1,6.09,1.27,8.65,3.22,2.56,1.95,6.26,3.61,8.77,1.61l-1.33-.77c2.17.06,4.14,1.26,5.19,3.16,1.77-1.4,3.84-2.37,6.05-2.83.51-.17,1.06-.14,1.55.09.61.36.79,1.27,1.37,1.62s1.61.2,2.42.34c1.08.38,2.03,1.05,2.75,1.94,3.38,3.02,8.32,3.53,12.25,1.27.61-.46,1.31-.78,2.05-.94,1.72-.14,2.78,1.78,4.08,2.92,1.67,1.26,3.79,1.77,5.86,1.42,2.05-.23,4.03-.93,6.06-1.27,4.22-.8,8.56-.28,12.82.24l3.12.39c1.29-1.22,2.86-2.09,4.58-2.54.61-.15,1.25-.08,1.8.22.37.28.66.65.84,1.08.78,1.51,1.38,3.11,1.78,4.77,1.67-.97,3.54-1.57,5.47-1.74.85.04,1.7.13,2.54.28,2.76.29,5.54.29,8.31,0,1.75.04,3.48-.39,5-1.27,1.47-1.19,2.34-2.97,2.38-4.86.03-1.87-.22-3.74-.74-5.54-.43-1.86-1.04-3.97-2.75-4.84-.74-.33-1.55-.51-2.36-.53-2.91-.23-5.84-.23-8.75,0,.24-1-.31-2.02-1.27-2.38-.92-.34-1.92-.45-2.89-.3l-4.68.29c-.43.06-.86.02-1.27-.1-.49-.25-.92-.6-1.27-1.01-2.33-2.02-5.76-2.14-8.23-.29-4.24-2.6-9.18-3.84-14.15-3.54-4.7.23-9.36,1.17-14.06,1.27-8.13.09-16.02-2.54-24.09-3.8-9.92-1.57-20.39-1.27-29.48-5.49-3.73-1.74-7.43-4.29-11.54-3.92l1.83,1.46c-2.21-.43-4.49-.23-6.59.58.03-.93-.46-1.8-1.27-2.27-2.19-1.74-5.49-2.46-7.8-.87-.24.1-.65.93-.18.79Z" style="fill: rgb(104, 225, 253);"/><path class="cls-30_fast-food-19" d="M190.1,176.22c-.79-.83-2.09-.91-2.98-.19-.83.74-1.45,1.68-1.81,2.73-.89,2.03-1.78,4.36-.86,6.34.85,1.41,2.11,2.53,3.61,3.2l6.89,3.91c.63.43,1.37.69,2.13.74.84,0,1.59-.58,2.42-.68s1.88.66,1.48,1.41c.7-.74,1.98-.37,2.73.33.64.79,1.36,1.52,2.14,2.17,2.22,1.36,5.59-.56,7.48,1.27.49.47.81,1.15,1.43,1.41s1.67-.18,2.54-.44c3.06-1,6.09,1.27,8.65,3.22,2.56,1.95,6.26,3.61,8.77,1.61l-1.33-.77c2.17.06,4.14,1.26,5.19,3.16,1.77-1.4,3.84-2.37,6.05-2.83.51-.17,1.06-.14,1.55.09.61.36.79,1.27,1.37,1.62s1.61.2,2.42.34c1.08.38,2.03,1.05,2.75,1.94,3.38,3.02,8.32,3.53,12.25,1.27.61-.46,1.31-.78,2.05-.94,1.72-.14,2.78,1.78,4.08,2.92,1.67,1.26,3.79,1.77,5.86,1.42,2.05-.23,4.03-.93,6.06-1.27,4.22-.8,8.56-.28,12.82.24l3.12.39c1.29-1.22,2.86-2.09,4.58-2.54.61-.15,1.25-.08,1.8.22.37.28.66.65.84,1.08.78,1.51,1.38,3.11,1.78,4.77,1.67-.97,3.54-1.57,5.47-1.74.85.04,1.7.13,2.54.28,2.76.29,5.54.29,8.31,0,1.75.04,3.48-.39,5-1.27,1.47-1.19,2.34-2.97,2.38-4.86.03-1.87-.22-3.74-.74-5.54-.43-1.86-1.04-3.97-2.75-4.84-.74-.33-1.55-.51-2.36-.53-2.91-.23-5.84-.23-8.75,0,.24-1-.31-2.02-1.27-2.38-.92-.34-1.92-.45-2.89-.3l-4.68.29c-.43.06-.86.02-1.27-.1-.49-.25-.92-.6-1.27-1.01-2.33-2.02-5.76-2.14-8.23-.29-4.24-2.6-9.18-3.84-14.15-3.54-4.7.23-9.36,1.17-14.06,1.27-8.13.09-16.02-2.54-24.09-3.8-9.92-1.57-20.39-1.27-29.48-5.49-3.73-1.74-7.43-4.29-11.54-3.92l1.83,1.46c-2.21-.43-4.49-.23-6.59.58.03-.93-.46-1.8-1.27-2.27-2.19-1.74-5.49-2.46-7.8-.87-.24.1-.65.93-.18.79Z"/><path class="cls-37_fast-food-19 targetColor" d="M329.9,186.65l9.03,13.48c.87,1.12,1.49,2.42,1.81,3.8.3,1.43-.36,2.89-1.64,3.6-.94.28-1.93.28-2.87,0l-21.78-4.11c-4.65-.87-9.32-1.75-14.02-2.35-10.25-1.27-20.64-1.17-30.81-3.04-2.38-.43-5.24-1.79-7.61-1.84-1.65,0-3.58.9-5.26,1.19-4.73.78-9.56.82-14.3.14-13.73-1.8-24.18-8.36-23.36-14.63.82-6.28,12.68-9.89,26.35-8.08,13.67,1.81,24.18,8.36,23.36,14.62-.39,2.93-3.16,5.28-7.38,6.76-10.63-.41-22.28-1.45-32.85-2.54-7.79-.82-14.42-5.62-22-7.61-10.55-2.55-21.45-3.36-32.26-2.41-.47-2.61,2.1-4.65,4.37-6.01,5.45-3.25,11.12-6.34,17.32-7.61,4.77-.85,9.63-1.16,14.47-.93,28.29.29,56.71.6,84.63,5.07,12.5,2.08,27.67,1.91,34.81,12.48Z" style="fill: rgb(104, 225, 253);"/><path class="cls-37_fast-food-19 targetColor" d="M329.9,186.65l9.03,13.48c.87,1.12,1.49,2.42,1.81,3.8.3,1.43-.36,2.89-1.64,3.6-.94.28-1.93.28-2.87,0l-21.78-4.11c-4.65-.87-9.32-1.75-14.02-2.35-10.25-1.27-20.64-1.17-30.81-3.04-2.38-.43-5.24-1.79-7.61-1.84-1.65,0-3.58.9-5.26,1.19-4.73.78-9.56.82-14.3.14-13.73-1.8-24.18-8.36-23.36-14.63.82-6.28,12.68-9.89,26.35-8.08,13.67,1.81,24.18,8.36,23.36,14.62-.39,2.93-3.16,5.28-7.38,6.76-10.63-.41-22.28-1.45-32.85-2.54-7.79-.82-14.42-5.62-22-7.61-10.55-2.55-21.45-3.36-32.26-2.41-.47-2.61,2.1-4.65,4.37-6.01,5.45-3.25,11.12-6.34,17.32-7.61,4.77-.85,9.63-1.16,14.47-.93,28.29.29,56.71.6,84.63,5.07,12.5,2.08,27.67,1.91,34.81,12.48Z" style="fill: rgb(104, 225, 253);"/><path class="cls-28_fast-food-19" d="M329.9,186.65l9.03,13.48c.87,1.12,1.49,2.42,1.81,3.8.3,1.43-.36,2.89-1.64,3.6-.94.28-1.93.28-2.87,0l-21.78-4.11c-4.65-.87-9.32-1.75-14.02-2.35-10.25-1.27-20.64-1.17-30.81-3.04-2.38-.43-5.24-1.79-7.61-1.84-1.65,0-3.58.9-5.26,1.19-4.73.78-9.56.82-14.3.14-13.73-1.8-24.18-8.36-23.36-14.63.82-6.28,12.68-9.89,26.35-8.08,13.67,1.81,24.18,8.36,23.36,14.62-.39,2.93-3.16,5.28-7.38,6.76-10.63-.41-22.28-1.45-32.85-2.54-7.79-.82-14.42-5.62-22-7.61-10.55-2.55-21.45-3.36-32.26-2.41-.47-2.61,2.1-4.65,4.37-6.01,5.45-3.25,11.12-6.34,17.32-7.61,4.77-.85,9.63-1.16,14.47-.93,28.29.29,56.71.6,84.63,5.07,12.5,2.08,27.67,1.91,34.81,12.48Z"/><path class="cls-37_fast-food-19 targetColor" d="M183.34,179.44c5.82-.65,12-1.27,17.28,1.27,3.13,1.51,5.78,4.05,9.16,4.93,2.04.38,4.11.55,6.19.51,4.53.23,8.88,1.48,13.37,2.4,6.03,1.25,12.18,1.86,18.34,1.84,3.8,0,7.74-.27,11.49.57,4.18.95,7.99,3.23,12.2,4.07,7.77,1.53,15.79-2,23.64-.98,3.8.51,7.51,2.07,11.31,1.62,1.04-.22,2.11-.31,3.17-.28.96.18,1.89.5,2.76.95,3.7,1.6,7.73,2.27,11.74,1.94.65-.02,1.28-.17,1.86-.44.72-.45,1.29-1.09,1.66-1.85,1.94-3.51,2.37-7.66,1.19-11.5-16.05,1.67-32.08-2.1-48.05-4.53-24.95-3.8-50.47-4.26-74.98-10.32-3.72-.93-10.51-3.23-13.95-.53-1.27.96-2.12,2.83-3.13,4.03-1.01,1.2-4.05,6.16-5.25,6.3Z" style="fill: rgb(104, 225, 253);"/><ellipse class="cls-34_fast-food-19" cx="298.92" cy="188.43" rx="25.07" ry="11.46"/><ellipse class="cls-35_fast-food-19" cx="298.92" cy="184" rx="25.07" ry="11.46"/><ellipse class="cls-33_fast-food-19" cx="245.8" cy="184.91" rx="11.46" ry="25.07" transform="translate(30.4 404.47) rotate(-82.5)"/><path class="cls-37_fast-food-19 targetColor" d="M194.22,144.95c-1.27,6.51-8.19,9.99-14.24,12.68-1.78.79-3.8,1.85-4.17,3.8-.16,1.06.02,2.15.52,3.11,2.28,4.92,7.26,8.02,12.68,7.89,4.2-.19,8.88-2.23,12.3.23,2.4,1.74,3.02,5.07,4.93,7.3,1.95,2.21,4.94,3.18,7.81,2.54,3.6-.84,6.49-4.15,10.14-4.07,4.88.09,7.49,5.68,11.5,8.47,2.93,1.96,6.61,2.43,9.94,1.27,4.86-1.74,8.72-6.89,13.85-6.23,1.42.24,2.77.76,3.99,1.51,2.42,1.36,4.69,2.97,6.76,4.82.43.48,1.03.78,1.67.84.57-.14,1.06-.49,1.38-.99,1.64-2.02,3.12-4.25,5.29-5.66,2.17-1.41,5.34-1.76,7.22,0,.98,1.15,1.71,2.5,2.16,3.94.45,1.46,1.54,2.62,2.97,3.17,1.47.38,3.27-1.1,2.65-2.54.65-3.18,6.85-3.68,9.75-2.22,2.9,1.46,5.07,4.15,8.08,5.36,4.67,1.7,9.86-.4,12.05-4.86.22-.78.69-1.47,1.34-1.95.97-.29,2.02-.06,2.79.6,2.84,1.78,5.67,3.88,8.99,4.34,3.32.46,7.29-1.47,7.61-4.82.2-2.19-1.19-4.2-2.54-5.96l-8.71-11.63c-.89-1.42-2.14-2.58-3.61-3.37-1-.35-2.06-.53-3.12-.51-9.89-.41-19.79.46-29.7.15-23.57-.7-46.4-7.85-69.42-12.96-10.14-2.13-22.39-5.1-32.85-4.26Z" style="fill: rgb(104, 225, 253);"/><path class="cls-31_fast-food-19" d="M194.22,144.95c-1.27,6.51-8.19,9.99-14.24,12.68-1.78.79-3.8,1.85-4.17,3.8-.16,1.06.02,2.15.52,3.11,2.28,4.92,7.26,8.02,12.68,7.89,4.2-.19,8.88-2.23,12.3.23,2.4,1.74,3.02,5.07,4.93,7.3,1.95,2.21,4.94,3.18,7.81,2.54,3.6-.84,6.49-4.15,10.14-4.07,4.88.09,7.49,5.68,11.5,8.47,2.93,1.96,6.61,2.43,9.94,1.27,4.86-1.74,8.72-6.89,13.85-6.23,1.42.24,2.77.76,3.99,1.51,2.42,1.36,4.69,2.97,6.76,4.82.43.48,1.03.78,1.67.84.57-.14,1.06-.49,1.38-.99,1.64-2.02,3.12-4.25,5.29-5.66,2.17-1.41,5.34-1.76,7.22,0,.98,1.15,1.71,2.5,2.16,3.94.45,1.46,1.54,2.62,2.97,3.17,1.47.38,3.27-1.1,2.65-2.54.65-3.18,6.85-3.68,9.75-2.22,2.9,1.46,5.07,4.15,8.08,5.36,4.67,1.7,9.86-.4,12.05-4.86.22-.78.69-1.47,1.34-1.95.97-.29,2.02-.06,2.79.6,2.84,1.78,5.67,3.88,8.99,4.34,3.32.46,7.29-1.47,7.61-4.82.2-2.19-1.19-4.2-2.54-5.96l-8.71-11.63c-.89-1.42-2.14-2.58-3.61-3.37-1-.35-2.06-.53-3.12-.51-9.89-.41-19.79.46-29.7.15-23.57-.7-46.4-7.85-69.42-12.96-10.14-2.13-22.39-5.1-32.85-4.26Z"/><path class="cls-37_fast-food-19 targetColor" d="M193.17,151.5c-3.3,5.52-12.6,5.26-15.22,11.12,6.7.4,13.33-1.49,18.8-5.36-.65,2.33-1.81,4.49-3.37,6.34l8.75-5.47c-.1,3.62-1.44,7.09-3.8,9.83,2.23-.57,3.47-2.87,4.73-4.79,1.26-1.93,3.31-3.92,5.53-3.31,1.05,1.94.2,4.31-.27,6.47-1.1,5.18.08,10.57,3.23,14.82,1.39-3.14.37-6.75,0-10.14-.37-3.4.67-7.61,3.96-8.62-.34,2.72.01,5.49,1.01,8.04l.67-7.08,1.83,1.38c1.78-1.94,4.55-2.6,7.01-1.69l.34,13.68c2.43-4.03,3.37-8.78,2.66-13.43,1.94,0,3.69,1.18,4.44,2.98.71,1.76,1.06,3.65,1.03,5.55,2.06-1.3,3.13-3.71,2.71-6.11,3.01,1.84,3.6,5.86,4.2,9.33.6,3.47,2.08,7.51,5.53,8.24-2.04-4.86-3.11-10.06-3.17-15.33,1.78.37,3.04,1.98,2.95,3.8l4.81-4.31c-.5,3.75.7,7.54,3.28,10.31,2.55,2.71,5.55,4.96,8.88,6.64,1.98,1.12,4.16,2.23,6.4,1.9,4.31-.62,6.19-5.9,9.89-8.19-5.15-.66-9.78,4.6-14.9,3.69-1.68-.39-3.24-1.18-4.54-2.32-2.68-2.11-4.94-4.72-6.64-7.68-.49-.84-.91-1.94-.3-2.7.33-.36.78-.6,1.27-.68,4.05-.91,8.14.98,12.24,1.66,2.39.32,4.8.44,7.2.36,4.07.14,8.15-.26,12.12-1.18,1.93,4.38,2.77,9.17,2.43,13.95,1.7-3.87,2.7-8.02,2.95-12.24,3.21,1.16,6.5,2.06,9.85,2.7-1.27,3.25,1.38,6.62,4.06,8.88,2.3,1.89,4.81,3.52,7.47,4.86,1.75,1.05,3.78,1.55,5.82,1.43,3.61-.48,5.83-4.08,7.54-7.29-2.91,2.52-6.71,3.76-10.55,3.46-3.88-.4-7.12-3.15-8.14-6.91-.16-.52-.12-1.09.13-1.59.55-.59,1.36-.89,2.17-.79l12.34-.23c.65-.06,1.31.02,1.93.25.48.26.91.6,1.27,1.01l4.27,4.41-2-6.99c3.86,1.52,7.52,3.51,10.89,5.93,1.78-2.23,1.1-5.68-.75-7.85-1.85-2.17-4.56-3.37-7.18-4.51-6.7,3.03-14.23,3.61-21.56,3.66-24.47.14-48.62-5.17-72.44-10.78-7.54-1.78-15.15-3.6-22.2-6.82-2.84-1.48-5.81-2.7-8.88-3.64-3.1-.93-6.44-.46-9.17,1.27" style="fill: rgb(104, 225, 253);"/><path class="cls-37_fast-food-19 targetColor" d="M336.11,155.37l-.6,3.96c-1.45,10.01-10.75,16.96-20.76,15.51-.02,0-.05,0-.07-.01l-4.65-.68-105.13-15.56c-10.01-1.49-16.92-10.8-15.46-20.81l.61-3.99c4.02-27.35,29.45-46.26,56.79-42.24.03,0,.07.01.1.02l46.92,6.95c27.37,4.05,46.28,29.5,42.25,56.87Z" style="fill: rgb(104, 225, 253);"/><path class="cls-32_fast-food-19" d="M327.64,172.77c-3.7,2.35-8.13,3.29-12.46,2.64l-109.82-16.26c-10.01-1.48-16.93-10.79-15.45-20.81,0,0,0-.01,0-.02l.6-3.99c3.8-25.68,26.59-44.2,52.51-42.68-18.72,5.52-32.52,21.42-35.37,40.73l-.61,3.99c-1.48,10.02,5.44,19.34,15.46,20.82,0,0,0,0,0,0l105.15,15.57Z"/><path class="cls-14_fast-food-19" d="M318.98,157.33l-.6,3.99c-.78,5.28-3.83,9.96-8.34,12.81l-105.15-15.56c-10.01-1.49-16.92-10.8-15.46-20.81l.61-3.99c2.84-19.32,16.64-35.22,35.37-40.75,1.45.09,2.92.23,4.39.46l46.92,6.95c27.38,4.04,46.3,29.51,42.27,56.89,0,0,0,.02,0,.02Z"/><path class="cls-37_fast-food-19 targetColor" d="M238.46,102.58c.2.29.44.55.72.76.41.35,1.03.3,1.38-.11.2-.24.28-.55.21-.86-.07-.45-.23-.88-.47-1.27l-2.32-4.3c-.2-.43-.49-.81-.86-1.1-1.33-.89-3.4.41-2.43,1.9,1.12,1.74,2.54,3.39,3.78,4.97Z" style="fill: rgb(104, 225, 253);"/><path class="cls-37_fast-food-19 targetColor" d="M218.15,108.6c3.73-1.88,7.53-3.61,11.41-5.19.16-.08.35-.08.51,0,.12.09.2.22.22.37l.71,2.16c-2.21,1.61-4.52,3.08-6.91,4.4-.6.45-1.38.59-2.09.37-.81-.42-.85-1.52-1.27-2.33" style="fill: rgb(104, 225, 253);"/><path class="cls-37_fast-food-19 targetColor" d="M238.6,110.95c2.7-.3,5.41-.5,8.13-.58.26.57.07,1.24-.44,1.59-.53.3-1.14.46-1.75.47l-7.93.72c-.76.06-3.2-.29-1.93-1.37.8-.72,2.84-.71,3.92-.82Z" style="fill: rgb(104, 225, 253);"/><path class="cls-37_fast-food-19 targetColor" d="M260.42,104.17c.34-.1.65-.25.94-.46.3-.21.47-.55.46-.91-.08-.46-.43-.82-.89-.9-.44-.09-.9-.09-1.34,0l-4.79.9c-.45.06-.89.23-1.27.48-1.27,1-.65,3.36,1.07,2.9,1.94-.48,3.89-1.38,5.83-2.02Z" style="fill: rgb(104, 225, 253);"/><path class="cls-37_fast-food-19 targetColor" d="M268.22,107.44c.35-2.17.81-4.32,1.38-6.44.66-.04,1.27.31,1.59.89.19.48.22,1.01.08,1.51l-1.18,6.34c-.11.61-1.09,2.35-1.94,1-.56-.86-.05-2.46.08-3.3Z" style="fill: rgb(104, 225, 253);"/><path class="cls-37_fast-food-19 targetColor" d="M282.98,115.93c.2.24.44.44.71.6.41.25.94.12,1.18-.29.13-.21.16-.47.08-.71-.1-.38-.28-.74-.53-1.05l-2.46-3.53c-.21-.37-.5-.67-.86-.89-1.27-.65-2.93.68-1.94,1.9s2.61,2.66,3.82,3.97Z" style="fill: rgb(104, 225, 253);"/><path class="cls-37_fast-food-19 targetColor" d="M253.17,99.25c.14.28.32.53.53.75.23.23.55.33.86.27.38-.14.64-.51.65-.91,0-.4-.1-.79-.27-1.15l-1.5-4.02c-.12-.4-.33-.77-.62-1.08-1.05-.94-3.01,0-2.35,1.36.8,1.65,1.8,3.21,2.69,4.79Z" style="fill: rgb(104, 225, 253);"/><path class="cls-37_fast-food-19 targetColor" d="M291.53,104.32c.31-.02.61-.09.9-.22.45-.15.7-.64.54-1.09-.09-.26-.29-.46-.54-.54-.37-.15-.77-.22-1.17-.2l-4.29-.13c-.43-.05-.87,0-1.27.16-1.27.63-1.19,2.78.37,2.7,1.81-.09,3.65-.46,5.45-.68Z" style="fill: rgb(104, 225, 253);"/><path class="cls-37_fast-food-19 targetColor" d="M283.94,123.24c2.33-.52,4.69-.95,7.06-1.27.3.47.2,1.1-.24,1.45-.44.32-.95.52-1.48.58l-6.87,1.39c-.66.14-2.82.08-1.81-1,.66-.75,2.45-.95,3.35-1.15Z" style="fill: rgb(104, 225, 253);"/><path class="cls-37_fast-food-19 targetColor" d="M261.63,116.39c2.3.7,4.56,1.48,6.78,2.35.03.56-.36,1.04-.91,1.13-.54.06-1.09-.02-1.59-.23l-6.66-2.16c-.65-.2-2.54-1.27-1.09-1.78.93-.29,2.57.42,3.46.68Z" style="fill: rgb(104, 225, 253);"/><path class="cls-11_fast-food-19" d="M238.46,102.58c.2.29.44.55.72.76.41.35,1.03.3,1.38-.11.2-.24.28-.55.21-.86-.07-.45-.23-.88-.47-1.27l-2.32-4.3c-.2-.43-.49-.81-.86-1.1-1.33-.89-3.4.41-2.43,1.9,1.12,1.74,2.54,3.39,3.78,4.97Z"/><path class="cls-12_fast-food-19" d="M218.15,108.6c3.73-1.88,7.53-3.61,11.41-5.19.16-.08.35-.08.51,0,.12.09.2.22.22.37l.71,2.16c-2.21,1.61-4.52,3.08-6.91,4.4-.6.45-1.38.59-2.09.37-.81-.42-.85-1.52-1.27-2.33"/><path class="cls-13_fast-food-19" d="M238.6,110.95c2.7-.3,5.41-.5,8.13-.58.26.57.07,1.24-.44,1.59-.53.3-1.14.46-1.75.47l-7.93.72c-.76.06-3.2-.29-1.93-1.37.8-.72,2.84-.71,3.92-.82Z"/><path class="cls-22_fast-food-19" d="M260.42,104.17c.34-.1.65-.25.94-.46.3-.21.47-.55.46-.91-.08-.46-.43-.82-.89-.9-.44-.09-.9-.09-1.34,0l-4.79.9c-.45.06-.89.23-1.27.48-1.27,1-.65,3.36,1.07,2.9,1.94-.48,3.89-1.38,5.83-2.02Z"/><path class="cls-18_fast-food-19" d="M268.22,107.44c.35-2.17.81-4.32,1.38-6.44.66-.04,1.27.31,1.59.89.19.48.22,1.01.08,1.51l-1.18,6.34c-.11.61-1.09,2.35-1.94,1-.56-.86-.05-2.46.08-3.3Z"/><path class="cls-16_fast-food-19" d="M282.98,115.93c.2.24.44.44.71.6.41.25.94.12,1.18-.29.13-.21.16-.47.08-.71-.1-.38-.28-.74-.53-1.05l-2.46-3.53c-.21-.37-.5-.67-.86-.89-1.27-.65-2.93.68-1.94,1.9s2.61,2.66,3.82,3.97Z"/><path class="cls-15_fast-food-19" d="M253.17,99.25c.14.28.32.53.53.75.23.23.55.33.86.27.38-.14.64-.51.65-.91,0-.4-.1-.79-.27-1.15l-1.5-4.02c-.12-.4-.33-.77-.62-1.08-1.05-.94-3.01,0-2.35,1.36.8,1.65,1.8,3.21,2.69,4.79Z"/><path class="cls-21_fast-food-19" d="M291.53,104.32c.31-.02.61-.09.9-.22.45-.15.7-.64.54-1.09-.09-.26-.29-.46-.54-.54-.37-.15-.77-.22-1.17-.2l-4.29-.13c-.43-.05-.87,0-1.27.16-1.27.63-1.19,2.78.37,2.7,1.81-.09,3.65-.46,5.45-.68Z"/><path class="cls-17_fast-food-19" d="M283.94,123.24c2.33-.52,4.69-.95,7.06-1.27.3.47.2,1.1-.24,1.45-.44.32-.95.52-1.48.58l-6.87,1.39c-.66.14-2.82.08-1.81-1,.66-.75,2.45-.95,3.35-1.15Z"/><path class="cls-24_fast-food-19" d="M261.63,116.39c2.3.7,4.56,1.48,6.78,2.35.03.56-.36,1.04-.91,1.13-.54.06-1.09-.02-1.59-.23l-6.66-2.16c-.65-.2-2.54-1.27-1.09-1.78.93-.29,2.57.42,3.46.68Z"/><path class="cls-20_fast-food-19" d="M189.06,185.95c1.53,3.44,5.14,5.47,8.88,5,.3-.06.6-.06.9,0,.81.25.98,1.52,1.81,1.74.38.06.77.06,1.15,0,1.42,0,2.17,1.6,3.16,2.61,1.51,1.53,3.89,1.7,6.04,1.69s4.48,0,6.19,1.27c.63.63,1.36,1.17,2.14,1.6.47.14.97.2,1.46.18,2.08,0,4.36-.1,6,1.18.82.63,1.39,1.57,2.26,2.17s2.27.67,2.79-.23c-3.93-1.12-6.58-4.98-10.47-6.24-1.46-.39-2.96-.63-4.46-.74-2.01-.3-4-.69-5.97-1.19-1.81-.32-3.56-.94-5.16-1.85-1.1-.71-2.02-1.67-3.06-2.54-2.41-1.75-5.24-2.84-8.2-3.14-1.19-.07-2.37-.31-3.49-.72-1.85-.86-3.25-2.92-5.28-2.87.03.91.51,1.75,1.27,2.26.78.48,1.64.83,2.54,1.04"/></g><g id="french_fries_fast-food-19"><path class="cls-2_fast-food-19 targetColor" d="M454.65,254.96c8.73-12.09,15.97-25.19,21.56-39.02.8-1.99,1.57-4.18.91-6.23-.81-2.54-3.47-3.8-5.91-4.91-22.89-9.95-46.59-17.91-70.83-23.81-6.58-1.6-13.38-3.12-18.94-6.99-3.59-2.54-6.52-5.87-10.14-8.33-9.32-6.34-21.56-5.82-32.82-5.07-3.03.22-6.21.48-8.79,2.1-7.39,4.7-4.74,15.8-5.71,24.5-1.97,17.57-21.66,29.6-22.49,47.25-.48,10.08,5.68,19.58,13.77,25.61,8.09,6.04,17.94,9.16,27.66,11.91,25.04,7.08,50.57,12.31,76.37,15.63,5.81.75,12.48,1.13,16.67-2.97" style="fill: rgb(104, 225, 253);"/><path class="cls-37_fast-food-19 targetColor" d="M364.63,211.11c1.69-1.17,3.21-2.54,4.88-3.72,5.07-3.51,11.41-4.76,17.51-5.35,17.68-1.71,35.99,1.48,51.46,10.23,6.6,3.5,12.31,8.46,16.71,14.49,4.2,6.15,6.43,13.85,5.07,21.16-.53,2.58-1.38,5.09-2.54,7.46-.87,2.13-2.19,4.04-3.88,5.6-1.05.82-2.18,1.52-3.39,2.09l-27.9,14.66c-4.96,2.6-10.14,5.25-15.67,5.62s-11.29-1.7-16.9-2.88c-5.62-1.18-11.22-1.51-15.98-4.4-4.02-2.43-6.83-6.34-9.83-10.02-7.02-8.5-15.99-16.31-18.36-27.09-.87-3.93-.86-8.03-1.27-12.02-.25-2.35-.72-4.56.95-6.47,2.1-2.41,6.34-3.45,9.26-4.58,3.47-1.21,6.78-2.82,9.87-4.81Z" style="fill: rgb(104, 225, 253);"/><path class="cls-23_fast-food-19" d="M364.63,211.11c1.69-1.17,3.21-2.54,4.88-3.72,5.07-3.51,11.41-4.76,17.51-5.35,17.68-1.71,35.99,1.48,51.46,10.23,6.6,3.5,12.31,8.46,16.71,14.49,4.2,6.15,6.43,13.85,5.07,21.16-.53,2.58-1.38,5.09-2.54,7.46-.87,2.13-2.19,4.04-3.88,5.6-1.05.82-2.18,1.52-3.39,2.09l-27.9,14.66c-4.96,2.6-10.14,5.25-15.67,5.62s-11.29-1.7-16.9-2.88c-5.62-1.18-11.22-1.51-15.98-4.4-4.02-2.43-6.83-6.34-9.83-10.02-7.02-8.5-15.99-16.31-18.36-27.09-.87-3.93-.86-8.03-1.27-12.02-.25-2.35-.72-4.56.95-6.47,2.1-2.41,6.34-3.45,9.26-4.58,3.47-1.21,6.78-2.82,9.87-4.81Z"/><path class="cls-37_fast-food-19 targetColor" d="M374.93,191.48c-.87,4.41-1.27,8.97-1.76,13.42-1.14,5.39-1.59,10.14-3.51,15.36-.77,2.1-1.53,3.02-.3,5.07,1.45,2.45,5.21,2.24,4.16,5.87-1.74,5.99-2.89,12.57-.52,18.34,2.06,4.5,5.62,8.13,10.07,10.28,4.48,2.35,9.81,3.53,14.61,1.95,3.64-1.18,6.62-3.8,9.36-6.47.55-.61,1.26-1.05,2.05-1.27.75-.07,1.51.07,2.19.41l14.1,5.29c2.46,1.3,5.38,1.41,7.93.28l32.53-10.79c-.75-5.43-1.17-10.89-1.27-16.37l-30.94,14.2,29.04-23.12-6.71-10.14-32.97,18.58,30.85-35.16c.99-.91,1.63-2.13,1.81-3.46,0-3.72-5.96-3.91-8-7.01-13.75,12.16-27.21,24.65-40.39,37.46l17.51-24.45c.78-.83,1.18-1.94,1.12-3.08-.55-2.61-4.92-2.02-6.34-4.22l-21.38,25.22c7.32-13.4,14.65-26.82,20.72-40.82.57-.94.67-2.09.25-3.11-.89-1.37-3.18-.85-4.37-1.97-9.22,13.59-16.47,28.41-21.56,44.03,1.65-6.54,3.91-12.91,6.77-19.02.88-1.56,1.41-3.29,1.59-5.07.12-1.83-1.02-3.51-2.76-4.08-2.31-.48-4.16,1.83-5.39,3.8l-14.15,23.21c4.77-12.68,10.09-25.14,15.95-37.37l-13.58,2.12c-.78.07-1.53.3-2.21.68-.69.55-1.23,1.28-1.55,2.1-1.36,2.97-2.35,6.1-2.94,9.32Z" style="fill: rgb(104, 225, 253);"/><path class="cls-19_fast-food-19" d="M371.32,192.9c-.89,4.41-1.27,8.95-1.76,13.42-1.14,5.39-1.59,10.14-3.51,15.36-.77,2.1-1.53,3.02-.3,5.07,1.45,2.43,5.2,2.24,4.15,5.87-1.74,5.99-2.88,12.57-.51,18.34,2.06,4.49,5.62,8.13,10.07,10.28,4.48,2.33,9.81,3.51,14.61,1.95,3.64-1.18,6.61-3.8,9.36-6.47.55-.61,1.26-1.05,2.05-1.27.75-.07,1.51.07,2.19.39l14.1,5.3c2.45,1.3,5.37,1.41,7.91.28l32.53-10.8c-.73-5.43-1.16-10.89-1.27-16.37l-30.86,14.16,28.99-23.15-6.71-10.14-32.97,18.56,30.85-35.15c1-.9,1.65-2.13,1.83-3.46,0-3.72-5.96-3.91-8.01-7.01-13.74,12.22-27.2,24.75-40.37,37.57l17.52-24.46c.77-.83,1.18-1.95,1.12-3.08-.55-2.61-4.92-2.02-6.4-4.24l-21.34,25.16c7.33-13.4,14.66-26.82,20.72-40.83.59-.93.68-2.08.25-3.09-.89-1.38-3.17-.86-4.37-1.98-9.21,13.6-16.46,28.42-21.56,44.04,1.65-6.54,3.91-12.91,6.76-19.02.89-1.56,1.43-3.29,1.6-5.07.12-1.84-1.02-3.52-2.78-4.08-2.31-.48-4.15,1.83-5.38,3.8l-14.15,23.21c4.77-12.68,10.08-25.13,15.94-37.36l-13.52,2.26c-.78.07-1.53.3-2.21.68-.7.55-1.23,1.28-1.55,2.1-1.38,2.94-2.39,6.04-3.01,9.23Z"/><path class="cls-37_fast-food-19 targetColor" d="M387.78,184.9c.44-.81,1.01-1.7,1.93-1.88.64-.05,1.27.09,1.83.41l3.31,1.46c.47.22.99.47,1.15.95.1.43.03.88-.19,1.27-1.78,3.84-3.9,7.52-6.34,10.98-3.6,5.73-6.89,11.66-9.84,17.75-3.01,6.15-5.3,12.97-8.74,18.84-2.9-2.19-6.19-5.67-5.29-9.59.96-4.17,4.3-8.36,6.34-12.05l15.84-28.15Z" style="fill: rgb(104, 225, 253);"/><path class="cls-26_fast-food-19" d="M390,185.95c.46-.81,1.03-1.7,1.94-1.86.63-.05,1.26.08,1.81.39l3.35,1.47c.49.14.91.48,1.14.94.1.43.03.88-.18,1.27-1.8,3.83-3.92,7.51-6.34,10.98-3.61,5.73-6.9,11.65-9.84,17.75-3.02,6.14-5.31,12.96-8.74,18.83-2.9-2.19-6.2-5.67-5.29-9.59.96-4.17,4.3-8.36,6.34-12.05l15.8-28.14Z"/><path class="cls-37_fast-food-19 targetColor" d="M342.46,221.81c10.63,1.82,21,4.98,30.84,9.4-7.52,9.43-4.43,25.36,6.09,31.23,10.51,5.87,25.69.33,29.85-10.98l28.44,12.77c-1.51,7.61-6.49,13.95-11.32,20.05l-29.48,37.03c-.91,1.41-2.24,2.49-3.8,3.11-1.69.25-3.42-.06-4.92-.87-16.77-6.98-33.17-14.81-49.14-23.46-5.92-3.21-11.96-6.68-16.02-12.06-12.74-16.93,10.54-51.34,19.46-66.2Z" style="fill: rgb(104, 225, 253);"/><path class="cls-37_fast-food-19 targetColor" d="M393.06,324.41c9.81-10.99,23.32-31.22,29.87-45.31,2.83-5.92,6.02-11.67,9.55-17.21,7.78-1.47,15.68-2.23,23.6-2.27-8.34,14.63-16.92,29.14-25.73,43.52-3.72,6.05-6.34,13.29-13.12,15.94-3.62,1.39-7.35,2.47-11.15,3.22-2.21.46-11.51.81-13.02,2.1Z" style="fill: rgb(104, 225, 253);"/><path class="cls-10_fast-food-19" d="M393.06,324.41c9.81-10.99,23.32-31.22,29.87-45.31,2.83-5.92,6.02-11.67,9.55-17.21,7.78-1.47,15.68-2.23,23.6-2.27-8.34,14.63-16.92,29.14-25.73,43.52-3.72,6.05-6.34,13.29-13.12,15.94-3.62,1.39-7.35,2.47-11.15,3.22-2.21.46-11.51.81-13.02,2.1Z"/><path class="cls-37_fast-food-19 targetColor" d="M427.45,211.39c.55-1.06.87-2.22.95-3.41,0-2.69-2.54-4.63-4.73-6.14-.5-.42-1.11-.67-1.76-.72-.95,0-1.64.91-2.16,1.71-2.33,3.81-4.35,7.79-6.06,11.91-4.93,11.21-9.51,22.58-14.08,33.95-1.36,2.92-2.24,6.03-2.62,9.22,3.72-1.59,7.24-3.6,10.5-5.99,1.55-1.06,2.94-2.34,4.12-3.8,3.32-4.51,3.94-10.87,6.59-15.85,3.55-6.68,6.2-13.97,9.24-20.87Z" style="fill: rgb(104, 225, 253);"/><path class="cls-37_fast-food-19 targetColor" d="M443.92,217.76c.53-.45.88-1.07.98-1.76-.07-.62-.35-1.21-.8-1.65l-5.68-7.1c-13.49,15.51-28.45,32.4-38.27,50.52,2.98,1.03,9.22-4.13,12.48-5.2,3.64-.94,6.79-3.23,8.81-6.4,6.89-9.93,14.4-19.42,22.48-28.4Z" style="fill: rgb(104, 225, 253);"/><path class="cls-37_fast-food-19 targetColor" d="M444.2,220.7c-.18,1.25-.61,2.45-1.27,3.53-6.11,11.72-12.55,23.6-22.23,32.6-.29.32-.66.56-1.08.7-.47.08-.96.03-1.39-.16-1.99-.64-3.9-1.53-5.67-2.65,3.36-5.07,8.81-8.45,12.52-13.3,1.37-1.8,2.54-3.8,3.68-5.69,2.22-3.5,4.66-6.86,7.3-10.04,1.75-2.14,5.15-7.8,7.8-8.47.37,1.13.48,2.32.34,3.5Z" style="fill: rgb(104, 225, 253);"/><path class="cls-27_fast-food-19" d="M444.2,220.7c-.18,1.25-.61,2.45-1.27,3.53-6.11,11.72-12.55,23.6-22.23,32.6-.29.32-.66.56-1.08.7-.47.08-.96.03-1.39-.16-1.99-.64-3.9-1.53-5.67-2.65,3.36-5.07,8.81-8.45,12.52-13.3,1.37-1.8,2.54-3.8,3.68-5.69,2.22-3.5,4.66-6.86,7.3-10.04,1.75-2.14,5.15-7.8,7.8-8.47.37,1.13.48,2.32.34,3.5Z"/><path class="cls-37_fast-food-19 targetColor" d="M420.94,222.73l-3.35-3.8c-8.71,8.74-17.42,17.47-25.73,26.63-4.03,4.43-8.01,9-10.6,14.4-.24.4-.35.86-.33,1.33.1.46.35.87.71,1.18,8.52,8.45,16.48-6.52,20.83-12.22,6.72-8.78,12.89-17.97,18.46-27.52Z" style="fill: rgb(104, 225, 253);"/><path class="cls-25_fast-food-19" d="M420.94,222.73l-3.35-3.8c-8.71,8.74-17.42,17.47-25.73,26.63-4.03,4.43-8.01,9-10.6,14.4-.24.4-.35.86-.33,1.33.1.46.35.87.71,1.18,8.52,8.45,16.48-6.52,20.83-12.22,6.72-8.78,12.89-17.97,18.46-27.52Z"/><path class="cls-37_fast-food-19 targetColor" d="M419.28,218.92l-7.75-6.34c-8.88,16.86-25.61,28.68-33.93,45.84-.24.38-.34.82-.29,1.27.15.43.45.79.84,1.01,7.49,5.41,11.22-.32,15.43-6.01,5.58-7.53,11.07-15.11,16.48-22.75,3.1-4.33,6.18-8.67,9.22-13.02Z" style="fill: rgb(104, 225, 253);"/><path class="cls-37_fast-food-19 targetColor" d="M352.62,213.01c.13-10.22,1.33-20.83,6.75-29.49.19-.37.47-.69.81-.91.4-.18.83-.26,1.27-.23l7.98-.2c-4.46,5.86-6.86,13.1-7.98,20.39-.9,7.33-1.24,14.71-1.01,22.09,0,.41,0,.9-.41,1.08-.3.1-.64.06-.91-.1-1.99-.84-6.07-1.67-6.99-3.93s.46-6.31.49-8.69Z" style="fill: rgb(104, 225, 253);"/><path class="cls-37_fast-food-19 targetColor" d="M368.08,181.69c-2.61,3.79-4.74,7.89-6.34,12.2-1.27,4.33-1.91,8.82-1.91,13.34-.19,5.95,0,11.91.09,17.87-.02.3.05.6.22.85.18.18.4.3.65.36l4.76,1.5v-7.28c-.08-6.84.35-13.67,1.27-20.44.51-3.37,1.34-6.69,2.47-9.9.46-1.27,1.45-2.75,1.18-4.15-.27-1.39-1.7-3.08-2.37-4.34Z" style="fill: rgb(104, 225, 253);"/><path class="cls-9_fast-food-19" d="M368.08,181.69c-2.61,3.79-4.74,7.89-6.34,12.2-1.27,4.33-1.91,8.82-1.91,13.34-.19,5.95,0,11.91.09,17.87-.02.3.05.6.22.85.18.18.4.3.65.36l4.76,1.5v-7.28c-.08-6.84.35-13.67,1.27-20.44.51-3.37,1.34-6.69,2.47-9.9.46-1.27,1.45-2.75,1.18-4.15-.27-1.39-1.7-3.08-2.37-4.34Z"/><path class="cls-37_fast-food-19 targetColor" d="M376.81,229.99c6.93-12.59,13.91-25.16,20.92-37.72,3.38.99,6.81,1.83,10.27,2.54-1,3.11-2.47,6.05-4.37,8.71-10.77,16.97-20.45,34.6-28.97,52.8.2-.43-2.64-5.79-2.88-6.75-.72-2.44-.97-4.99-.75-7.52.53-4.11,3.79-8.5,5.78-12.06Z" style="fill: rgb(104, 225, 253);"/><path class="cls-37_fast-food-19 targetColor" d="M409.07,200.87c-.24,1.13-.64,2.21-1.2,3.22-9.12,18.67-20.07,36.38-32.7,52.88,2.41-3.09,3.63-8.52,5.29-12.12,1.93-4.16,3.94-8.27,6.05-12.34,4.23-8.13,8.8-16.07,13.71-23.81,1.57-2.54,5.49-11.06,8.45-11.53.49,1.17.63,2.45.42,3.7Z" style="fill: rgb(104, 225, 253);"/><path class="cls-4_fast-food-19" d="M409.07,200.87c-.24,1.13-.64,2.21-1.2,3.22-9.12,18.67-20.07,36.38-32.7,52.88,2.41-3.09,3.63-8.52,5.29-12.12,1.93-4.16,3.94-8.27,6.05-12.34,4.23-8.13,8.8-16.07,13.71-23.81,1.57-2.54,5.49-11.06,8.45-11.53.49,1.17.63,2.45.42,3.7Z"/><path class="cls-37_fast-food-19 targetColor" d="M402.68,208.78c.22-.54.54-1.02.95-1.43.47-.36,1-.62,1.57-.76l5.49-1.83c-.34,3.42-.93,6.81-1.75,10.14-.25,1.2-.65,2.36-1.18,3.46-.74,1.28-1.64,2.46-2.68,3.51-4.21,4.79-8.72,9.31-13.5,13.53,2.84-2.43,3.8-9.36,5.07-12.68,1.79-4.75,3.8-9.4,6.02-13.95Z" style="fill: rgb(104, 225, 253);"/><circle class="cls-36_fast-food-19" cx="360.58" cy="281.45" r="17.54"/><circle class="cls-37_fast-food-19 targetColor" cx="366.57" cy="279.65" r="1.8" style="fill: rgb(104, 225, 253);"/><path class="cls-37_fast-food-19 targetColor" d="M353.41,282.03c3.66,1.71,7.34,3.44,11.15,4.83-1.11,1.94-2.88,3.43-4.98,4.18-1.73.46-3.54.53-5.3.22-2.42-.56-4.42-2.25-5.39-4.54-.77-1.89-.85-3.99-.22-5.93.43-1.27,1-.74,1.94-.18s1.85.98,2.8,1.42Z" style="fill: rgb(104, 225, 253);"/></g><g id="soft_drink_fast-food-19"><path class="cls-2_fast-food-19 targetColor" d="M86.87,187.31c-2.93-6.81-13.38-7.02-19.02-2.14s-7.61,12.59-9.21,19.82c-3.33,14.44-6.45,30.51.91,43.38,1.09,1.91,2.45,3.8,2.4,6.06-.11,4.93-6.34,6.71-10.37,9.59-7.2,5.17-7.7,15.5-7.51,24.36.27,12.31.9,25.68,8.8,35.14,3.61,4.32,8.43,7.42,12.68,11.18,14.94,13.47,20.58,34.44,33.3,50.01,2.65,3.25,5.76,6.34,9.73,7.61,2.78.74,5.65,1.03,8.52.85l26.63-.23c2.66,0,5.49-.09,7.71-1.57,4.96-3.31,3.66-10.83,1.75-16.48-7.02-20.82-14.52-41.46-22.51-61.92-6.49-16.6-11.41-35.7-26.63-46.35-12.01-8.34-25.12-12.68-31.93-27.09-4.3-9.12-3.55-18.41-.08-27.69,1.26-3.46,15.51-22.91,14.82-24.52Z" style="fill: rgb(104, 225, 253);"/><path class="cls-37_fast-food-19 targetColor" d="M81.5,308.56l56.92,88.67s34.77-2.03,47.36-18.29l-18.12-111.41-86.16,41.02Z" style="fill: rgb(104, 225, 253);"/><path class="cls-6_fast-food-19" d="M185.77,378.95c-3.12,3.79-7.01,6.87-11.41,9.04-15.22,8.03-35.94,9.24-35.94,9.24l-56.92-88.66,38.24-18.22,47.92-22.82,18.11,111.42Z"/><path class="cls-7_fast-food-19" d="M175.48,384.36c-.28,1.23-.65,2.45-1.12,3.63-15.22,8.03-35.94,9.24-35.94,9.24l-56.92-88.66,38.24-18.22c12.22,4.15.84,13.35-.15,21.71-.1,2.22.29,4.44,1.13,6.49,5.46,16.43,11.84,32.54,19.11,48.26,1.86,4.06,3.89,8.2,7.33,11.03,7.58,6.24,18.82,3.99,28.32,6.52Z"/><path class="cls-37_fast-food-19 targetColor" d="M64.37,292.27c-.51.9-1.09,1.74-1.75,2.54-2.71,4.06-1.51,9.46-.2,14.16,21.45.96,42.83-2.89,62.6-11.26,19.78-8.43,37-21.91,49.94-39.08.84-.71.94-1.97.23-2.81-.1-.12-.21-.22-.33-.31l-5.07-5.77c-.26-.37-.63-.64-1.07-.76-.44,0-.87.09-1.27.28-2.14.71-4.39-.79-5.97-2.41-1.59-1.62-3.16-3.55-5.38-3.98-1.53-.17-3.08.04-4.51.61-23.8,7.38-47.56,15.41-69.46,27.3-2.75,1.59-5.58,3.01-8.5,4.27-1.51.63-3.07,1.12-4.67,1.47-1.04.22-3.65,0-4.44.61-1.51,1.27.25,3.7.55,5.28.59,3.3.35,6.69-.7,9.87Z" style="fill: rgb(104, 225, 253);"/><path class="cls-5_fast-food-19" d="M64.37,292.27c-.51.9-1.09,1.74-1.75,2.54-2.71,4.06-1.51,9.46-.2,14.16,21.45.96,42.83-2.89,62.6-11.26,19.78-8.43,37-21.91,49.94-39.08.84-.71.94-1.97.23-2.81-.1-.12-.21-.22-.33-.31l-5.07-5.77c-.26-.37-.63-.64-1.07-.76-.44,0-.87.09-1.27.28-2.14.71-4.39-.79-5.97-2.41-1.59-1.62-3.16-3.55-5.38-3.98-1.53-.17-3.08.04-4.51.61-23.8,7.38-47.56,15.41-69.46,27.3-2.75,1.59-5.58,3.01-8.5,4.27-1.51.63-3.07,1.12-4.67,1.47-1.04.22-3.65,0-4.44.61-1.51,1.27.25,3.7.55,5.28.59,3.3.35,6.69-.7,9.87Z"/><path class="cls-36_fast-food-19" d="M66.64,276.42c-1.04.96-1.72,2.24-1.94,3.64-.09,2.38,2.36,3.99,4.58,4.84,13.25,5.07,28.13.68,41.27-4.64,8.99-3.64,61.12-22.32,45.97-37.86-12.76-13.09-46.19,2.4-58.33,8.98-11.91,6.43-22.59,14.9-31.55,25.04Z"/><path class="cls-37_fast-food-19 targetColor" d="M77.96,272.88c-.78.72-1.29,1.68-1.45,2.73-.08,1.79,1.76,2.99,3.42,3.64,9.94,3.8,21.1.51,30.98-3.49,6.73-2.74,45.84-16.75,34.48-28.4-9.57-9.81-34.66,1.8-43.77,6.73-8.93,4.82-16.94,11.18-23.66,18.79Z" style="fill: rgb(104, 225, 253);"/><path class="cls-3_fast-food-19" d="M77.96,272.88c-.78.72-1.29,1.68-1.45,2.73-.08,1.79,1.76,2.99,3.42,3.64,9.94,3.8,21.1.51,30.98-3.49,6.73-2.74,45.84-16.75,34.48-28.4-9.57-9.81-34.66,1.8-43.77,6.73-8.93,4.82-16.94,11.18-23.66,18.79Z"/><path class="cls-36_fast-food-19" d="M114.14,249.89c1.78,3.63,6.9,16.21-3.18,13.57-.79-.23-1.5-.67-2.07-1.27-.9-1.01-1.63-2.15-2.17-3.39-3.68-7.43-7.36-14.86-11.06-22.29-3.8-7.82-7.89-15.84-14.27-21.81,1.38.46,2.54-1.27,2.54-2.73s-.68-2.89-.41-4.31c.34-1.17.98-2.24,1.86-3.08,11.86-13.41,24.42-26.19,37.64-38.27.38-.36.75-.71,1.14-1.05l6.06,5.49c-8.39,9.3-16.8,18.56-25.21,27.78-3.58,3.94-7.33,8.22-8.17,13.49-1.14,7.2,3.4,13.95,7.34,20.03,3.66,5.74,6.98,11.69,9.94,17.83Z"/><path class="cls-8_fast-food-19" d="M114.14,249.89c1.78,3.63,6.9,16.21-3.18,13.57-.79-.23-1.5-.67-2.07-1.27-.9-1.01-1.63-2.15-2.17-3.39-3.68-7.43-7.36-14.86-11.06-22.29-3.8-7.82-7.89-15.84-14.27-21.81,1.38.46,2.54-1.27,2.54-2.73s-.68-2.89-.41-4.31c.34-1.17.98-2.24,1.86-3.08,11.86-13.41,24.42-26.19,37.64-38.27.38-.36.75-.71,1.14-1.05l6.06,5.49c-8.39,9.3-16.8,18.56-25.21,27.78-3.58,3.94-7.33,8.22-8.17,13.49-1.14,7.2,3.4,13.95,7.34,20.03,3.66,5.74,6.98,11.69,9.94,17.83Z"/><path class="cls-36_fast-food-19" d="M110.08,248.29c1.64,3.37,6.15,14.4-1.19,13.95-.9-1.02-1.63-2.18-2.17-3.44-3.68-7.43-7.36-14.86-11.06-22.29-3.8-7.82-7.89-15.84-14.27-21.81,1.38.46,2.54-1.27,2.54-2.73s-.68-2.89-.41-4.31c.34-1.17.98-2.24,1.86-3.08,11.86-13.41,24.42-26.19,37.64-38.27l3.13,2.85c-8.39,9.24-16.79,18.49-25.2,27.76-3.59,3.96-7.34,8.24-8.17,13.52-1.14,7.19,3.39,13.95,7.33,20.03,3.67,5.74,6.99,11.69,9.95,17.82Z"/></g></svg>